<svg xmlns="http://www.w3.org/2000/svg" xmlns:xlink="http://www.w3.org/1999/xlink" viewBox="0 0 64 64"><defs><style>.cls-1{fill:none;}.cls-2{clip-path:url(#clip-path);}.cls-3{fill:#047857;}</style><clipPath id="clip-path"><rect class="cls-1" x="-833.14" y="-886.59" width="921.26" height="574.43" transform="translate(-745.03 -1198.75) rotate(180)"/></clipPath></defs><g id="Calque_35" data-name="Calque 35"><path class="cls-3" d="M13.89,40.57a5.88,5.88,0,0,1,1.21-1.89.7.7,0,0,0,.16-.54,1.66,1.66,0,0,1,1.07-1.72A16.05,16.05,0,0,1,16,34.77c-.11-1.11-.16-2.23-.25-3.34a.67.67,0,0,0-.14-.4,1.59,1.59,0,0,1-.53-1.36,16.49,16.49,0,0,1,3.24-8.83,16.81,16.81,0,0,1,9.57-6.44,17,17,0,0,1,17.58,6.15c.25.33.25.64,0,.85s-.56.14-.84-.21a15.89,15.89,0,0,0-28.1,6,21.54,21.54,0,0,0-.36,2.41c-.07.55.08.68.65.69H18.9c.61,0,.72-.1.78-.7a11.62,11.62,0,0,1,1.63-5,12,12,0,0,1,9.28-6A12.32,12.32,0,0,1,44.21,28.76c.07.34.09.7.14,1s.18.51.57.51h2.37c.44,0,.59-.16.56-.61a15.6,15.6,0,0,0-1.7-6.12,1.89,1.89,0,0,1-.17-.35.48.48,0,0,1,.23-.63.49.49,0,0,1,.67.13.67.67,0,0,1,.11.18,16.57,16.57,0,0,1,1.93,6.74,1.57,1.57,0,0,1-.55,1.39.38.38,0,0,0-.13.26,16.89,16.89,0,0,1-.59,5.09,1.78,1.78,0,0,1,1.08,1.35.5.5,0,0,1,0,.17c-.17.49.17.79.43,1.11s.33.43.5.64a1.92,1.92,0,0,1,.3,1.9q-1,2.74-2,5.48a1.87,1.87,0,0,1-1.42,1.25,7.65,7.65,0,0,1-.83.18,1.52,1.52,0,0,0-1.09.59,1.7,1.7,0,0,1-1.93.37.86.86,0,0,0-1.07.13,4.93,4.93,0,0,1-1.16.54h-.85a7.64,7.64,0,0,1-1.41-.68,2.72,2.72,0,0,1-.81-3.17L40.1,38.9c.39-1.07.78-2.13,1.16-3.19a2.94,2.94,0,0,1,3-2.26c0-.68,0-1.36,0-2.05,0-.06-.11-.14-.18-.18A1.55,1.55,0,0,1,43.3,30,11.33,11.33,0,0,0,30.72,19.63a11.2,11.2,0,0,0-9.87,9.22c-.07.38-.11.77-.16,1.15a1.47,1.47,0,0,1-.78,1.19.37.37,0,0,0-.23.38c0,.62,0,1.25,0,1.86a8.47,8.47,0,0,1,.92.13,2.64,2.64,0,0,1,1.88,1.52A12.55,12.55,0,0,1,23,36.37a.52.52,0,0,1-.32.69.51.51,0,0,1-.66-.32c-.14-.33-.25-.68-.38-1a1.75,1.75,0,1,0-3.29,1.2q2,5.46,4,10.92a1.74,1.74,0,0,0,2.28,1.1,1.76,1.76,0,0,0,1-2.32l-2.67-7.34a2.11,2.11,0,0,1-.1-.3.49.49,0,0,1,.35-.58.48.48,0,0,1,.61.21,1.55,1.55,0,0,1,.14.32c.88,2.41,1.74,4.83,2.64,7.23a2.84,2.84,0,0,1-2.1,3.91s-.06,0-.09,0h-.85a3.15,3.15,0,0,1-1-.42,1.21,1.21,0,0,0-1.47-.18A1.45,1.45,0,0,1,19.3,49a1.29,1.29,0,0,0-.9-.51c-.17,0-.34-.08-.52-.1a2.33,2.33,0,0,1-2-1.74c-.61-1.82-1.3-3.6-2-5.4Zm28.79,7.72.23.09c.77.29,1,.2,1.24-.56.7-1.91,1.39-3.83,2.09-5.74l1.36-3.75c.19-.5.06-.77-.45-1l-.44-.15c-.06.15-.1.27-.14.39l-.84,2.29a.46.46,0,0,1-.54.35.89.89,0,0,1-.46-.4c-.06-.1,0-.3.06-.44.29-.83.6-1.66.89-2.49a1.69,1.69,0,0,0-.36-1.84,1.75,1.75,0,0,0-2.93.64q-1.14,3.09-2.26,6.2c-.58,1.58-1.16,3.16-1.72,4.74a1.75,1.75,0,1,0,3.3,1.17L43.83,42c.15-.41.43-.57.75-.44s.38.41.24.81c-.06.19-.14.38-.2.56C44,44.72,43.33,46.49,42.68,48.29Zm-21.36,0-4-11.07-.3.1c-.69.24-.8.46-.54,1.16L19.9,48c.2.56.46.68,1,.5ZM15.73,39.6c-.17.22-.29.39-.43.54a1.15,1.15,0,0,0-.21,1.33c.61,1.62,1.19,3.25,1.78,4.87a1.43,1.43,0,0,0,1.7,1.06Zm29.68,7.86a3.85,3.85,0,0,0,.94-.21A1.2,1.2,0,0,0,47,46.7c.7-1.83,1.36-3.66,2-5.5a1.11,1.11,0,0,0-.07-.74,5.44,5.44,0,0,0-.64-.86Zm1.36-12a13.54,13.54,0,0,0,.4-4H45.42c0,.74-.09,1.47-.12,2.19a.29.29,0,0,0,.12.22A3.21,3.21,0,0,1,46.77,35.42Zm-29.53,0a3.09,3.09,0,0,1,1.31-1.58.31.31,0,0,0,.15-.21c0-.73-.08-1.47-.12-2.21H16.82A13.72,13.72,0,0,0,17.24,35.42Z"/></g></svg>