<svg xmlns="http://www.w3.org/2000/svg" xmlns:xlink="http://www.w3.org/1999/xlink" viewBox="0 0 64 64"><defs><style>.cls-1{fill:none;}.cls-2{clip-path:url(#clip-path);}.cls-3{fill:#047857;}</style><clipPath id="clip-path"><rect class="cls-1" x="-833.14" y="-886.59" width="921.26" height="574.43" transform="translate(-745.03 -1198.75) rotate(180)"/></clipPath></defs><g id="Calque_35" data-name="Calque 35"><path class="cls-3" d="M49.75,42.05A5.27,5.27,0,0,1,49,43.92a4.15,4.15,0,0,1-3.52,1.8H18.59a4.16,4.16,0,0,1-4.21-3.27,4.76,4.76,0,0,1-.11-1.13c0-5.06,0-10.12,0-15.18a4.25,4.25,0,0,1,4.14-4.41l.24,0a2.51,2.51,0,0,0,0-.37A2.14,2.14,0,0,1,20.19,19a5.41,5.41,0,0,1,4.44.08A2.08,2.08,0,0,1,26,21.26a3.12,3.12,0,0,0,0,.44h1.34A11.16,11.16,0,0,1,28,20a3.43,3.43,0,0,1,3-1.72c3.16,0,6.33,0,9.49,0a3.69,3.69,0,0,1,3.55,3c.07.38.21.47.58.45a5.43,5.43,0,0,1,2.61.36,4.19,4.19,0,0,1,2.41,3.14.73.73,0,0,0,.07.19ZM32,44.32c4.44,0,8.89,0,13.33,0a2.82,2.82,0,0,0,3-2.66c0-.88,0-1.77,0-2.66V26.16a2.82,2.82,0,0,0-3-3c-.57,0-1.13,0-1.7,0s-.88-.29-.86-.9a2.31,2.31,0,0,0-2.4-2.54q-4.55,0-9.11,0a2.33,2.33,0,0,0-2.42,2.46c0,.76-.2,1-1,1H18.66a2.79,2.79,0,0,0-3,2.93c0,5.11,0,10.23,0,15.34a2.84,2.84,0,0,0,1.12,2.35,3.1,3.1,0,0,0,1.95.57ZM24.53,21.63c.12-.93,0-1.19-.85-1.45a4.26,4.26,0,0,0-2.82,0c-.76.28-.92.59-.72,1.41Z"/><path class="cls-3" d="M27.3,33.6a8.49,8.49,0,1,1,8.51,8.46A8.52,8.52,0,0,1,27.3,33.6Zm15.57,0a7.07,7.07,0,1,0-7.16,7A7.11,7.11,0,0,0,42.87,33.63Z"/><path class="cls-3" d="M22.09,34c0,2.13,0,4.27,0,6.4a2.31,2.31,0,1,1-4.61,0c0-1.12,0-2.24,0-3.36,0-3.13,0-6.26,0-9.39a2.36,2.36,0,0,1,1.12-2.2,2.3,2.3,0,0,1,3.5,2.08C22.1,29.68,22.09,31.84,22.09,34ZM18.9,34c0,1.87,0,3.74,0,5.61,0,.35,0,.69,0,1a.84.84,0,0,0,.54.74.8.8,0,0,0,.85-.09,1,1,0,0,0,.39-.91V27.57c0-.1,0-.2,0-.31a.89.89,0,0,0-1.76.26C18.89,29.67,18.9,31.82,18.9,34Z"/><path class="cls-3" d="M45.1,24a2.28,2.28,0,0,1,2.28,2.25,2.28,2.28,0,1,1-4.56,0A2.28,2.28,0,0,1,45.1,24Zm0,3.14a.88.88,0,0,0,.87-.85.87.87,0,1,0-1.74,0A.88.88,0,0,0,45.1,27.17Z"/><path class="cls-3" d="M29.66,33.58a6.13,6.13,0,1,1,6.13,6.12A6.17,6.17,0,0,1,29.66,33.58Zm6.15-4.7a4.71,4.71,0,0,0,0,9.42,4.71,4.71,0,1,0,0-9.42Z"/></g></svg>