<svg xmlns="http://www.w3.org/2000/svg" xmlns:xlink="http://www.w3.org/1999/xlink" viewBox="0 0 64 64"><defs><style>.cls-1{fill:none;}.cls-2{clip-path:url(#clip-path);}.cls-3{fill:#047857;}</style><clipPath id="clip-path"><rect class="cls-1" x="-833.14" y="-886.59" width="921.26" height="574.43" transform="translate(-745.03 -1198.75) rotate(180)"/></clipPath></defs><g id="Calque_35" data-name="Calque 35"><path class="cls-3" d="M34.51,32V48.29c0,.88-.56,1.49-1.35,1.4a1.74,1.74,0,0,1-.88-.41c-2.46-2.05-4.9-4.13-7.34-6.21-1.27-1.07-2.53-2.15-3.8-3.2a.88.88,0,0,0-.57-.2c-1.63,0-3.26,0-4.89,0-1,0-1.53-.49-1.53-1.53V25.88c0-1,.46-1.51,1.5-1.51,1.59,0,3.18,0,4.77,0a1.23,1.23,0,0,0,.86-.31q5.5-4.71,11-9.4a1.27,1.27,0,0,1,2.15.63,2.54,2.54,0,0,1,0,.55ZM33.22,15.6l-.22.16q-5.49,4.68-11,9.35a.78.78,0,0,0-.23.54c0,4.24,0,8.48,0,12.72a.7.7,0,0,0,.27.6q4.59,3.87,9.16,7.76l2,1.69ZM15.44,25.66v12.7h5V25.66Z"/><path class="cls-3" d="M49.85,32.06A17.39,17.39,0,0,1,46,43c-.19.24-.39.45-.72.4a.64.64,0,0,1-.37-1.07c.46-.66,1-1.29,1.38-2a16.33,16.33,0,0,0-1.14-18.45l-.27-.35a.63.63,0,0,1,.11-.91.61.61,0,0,1,.88.13c.47.62,1,1.24,1.37,1.91A18,18,0,0,1,49.85,32.06Z"/><path class="cls-3" d="M47.21,32a14.78,14.78,0,0,1-3.13,9.1l-.15.19a.63.63,0,0,1-.89.13.63.63,0,0,1-.11-.91,19.67,19.67,0,0,0,1.44-2.23,13.31,13.31,0,0,0-1.25-14.53c-.39-.53-.44-.87-.1-1.14s.71-.15,1.11.38A14.7,14.7,0,0,1,47.21,32Z"/><path class="cls-3" d="M44.71,32a9.69,9.69,0,0,1-2.64,6.71c-.38.41-.85.41-1.1,0s-.06-.62.19-.89a8.2,8.2,0,0,0,2-3.8,8.4,8.4,0,0,0-1.83-7.57c-.1-.12-.22-.23-.32-.36a.63.63,0,1,1,.94-.84A9.64,9.64,0,0,1,44.71,32Z"/><path class="cls-3" d="M42.32,32a6.73,6.73,0,0,1-2.16,4.82,1,1,0,0,1-.73.24c-.53-.09-.62-.7-.19-1.11a5.09,5.09,0,0,0,1.56-2.57,5.2,5.2,0,0,0-1.42-5.14l-.21-.2a.63.63,0,1,1,.88-.9,6.09,6.09,0,0,1,1.92,3C42.14,30.72,42.2,31.35,42.32,32Z"/></g></svg>