<svg xmlns="http://www.w3.org/2000/svg" xmlns:xlink="http://www.w3.org/1999/xlink" viewBox="0 0 64 64"><defs><style>.cls-1{fill:none;}.cls-2{clip-path:url(#clip-path);}.cls-3{fill:#047857;}</style><clipPath id="clip-path"><rect class="cls-1" x="-833.14" y="-886.59" width="921.26" height="574.43" transform="translate(-745.03 -1198.75) rotate(180)"/></clipPath></defs><g id="Calque_35" data-name="Calque 35"><path class="cls-3" d="M50,25.86a4.69,4.69,0,0,1-.38.74,1.8,1.8,0,0,1-1.53.72H46.61c.73.8,1.38,1.54,2.06,2.24a4.23,4.23,0,0,1,1.21,3.13c0,1.93,0,3.87,0,5.81a2,2,0,0,1-1.17,2,.44.44,0,0,0-.16.3c0,.51,0,1,0,1.52a2,2,0,0,1-2.12,2.11H42.85a2,2,0,0,1-2.1-2.1c0-.54,0-1.08,0-1.64H23.43c0,.5,0,1,0,1.48a2.06,2.06,0,0,1-2.26,2.27c-1.14,0-2.28,0-3.42,0a2,2,0,0,1-2.11-2.12c0-.52,0-1,0-1.55a.51.51,0,0,0-.19-.35,2,2,0,0,1-1-1.74V32a3.8,3.8,0,0,1,1.2-2.83c.61-.59,1.2-1.2,1.88-1.87h-.7a12,12,0,0,1-1.47-.06A1.77,1.77,0,0,1,14,25.45a1.79,1.79,0,0,1,1.57-1.72,5.46,5.46,0,0,1,1,0,1.81,1.81,0,0,1,1.72,1.81.86.86,0,0,0,.07.34l.86-2.37.56-1.59a3.56,3.56,0,0,1,3.41-2.37q9,0,17.94,0a3.51,3.51,0,0,1,3.4,2.37c.42,1.12.81,2.25,1.24,3.46.05-.16.08-.24.1-.32a1.7,1.7,0,0,1,1.38-1.3,4.77,4.77,0,0,1,1.36,0A1.83,1.83,0,0,1,50,25.16ZM32.17,39.6H47.74c.72,0,1-.31,1-1,0-2.06,0-4.11,0-6.17a2.66,2.66,0,0,0-.71-1.86c-.76-.84-1.53-1.69-2.31-2.52a.76.76,0,0,0-.48-.19q-13.2,0-26.38,0a.74.74,0,0,0-.49.2c-.65.62-1.28,1.28-1.92,1.91a2.89,2.89,0,0,0-.92,2.2c0,2.09,0,4.18,0,6.27,0,.93.25,1.18,1.19,1.18Zm-13-12.9H45c0-.05,0-.08,0-.11-.53-1.5-1-3-1.6-4.47a2.23,2.23,0,0,0-2.2-1.48c-6,0-12.1,0-18.15,0a2.37,2.37,0,0,0-2.25,1.57c-.2.53-.38,1.06-.57,1.59C19.88,24.75,19.54,25.71,19.18,26.7Zm28.24,14H41.84v1.22c.41,0,.78,0,.84.48s-.23.57-.59.71a2,2,0,0,0,.75.22c1.19,0,2.39,0,3.59,0,.77,0,1.12-.44,1-1.23-.41-.08-1.09.17-1.08-.58s.67-.48,1.1-.55ZM16.75,41.94a1.63,1.63,0,0,1,.63,0,.83.83,0,0,1,.38.48.64.64,0,0,1-.21.48,2.15,2.15,0,0,1-.64.21,2.8,2.8,0,0,0,.66.22c1.31,0,2.63,0,3.94,0a.83.83,0,0,0,.8-1h-.7A.55.55,0,0,1,21,41.8a.57.57,0,0,1,.63-.56h.71v-.53H16.75Zm.36-15.73c.12-1.25-.12-1.5-1.32-1.43h-.07a.71.71,0,0,0,0,1.42C16.18,26.23,16.63,26.21,17.11,26.21Zm29.76,0c.51,0,1,0,1.46,0a.69.69,0,0,0,.59-.88c-.1-.43-.42-.56-1.26-.54-.45,0-.74.23-.78.6A7.57,7.57,0,0,0,46.87,26.21Z"/><path class="cls-3" d="M32.05,31.12h6.19a1.43,1.43,0,0,1,1.49.9,1.23,1.23,0,0,1-.23,1.32c-.62.7-1.26,1.39-1.92,2.06a.84.84,0,0,1-.53.21H27.3a.94.94,0,0,1-.58-.26c-.66-.59-1.28-1.21-1.92-1.81a1.33,1.33,0,0,1-.42-1.5,1.38,1.38,0,0,1,1.36-.92c1.24,0,2.47,0,3.7,0Zm0,1.09c-2.06,0-4.13,0-6.2,0a1.41,1.41,0,0,0-.45.18,1.27,1.27,0,0,0,.21.4c.52.53,1.06,1,1.6,1.54a.67.67,0,0,0,.39.18h9.09a.45.45,0,0,0,.28-.09c.55-.58,1.1-1.16,1.63-1.76.18-.19.09-.41-.17-.46a1.69,1.69,0,0,0-.32,0Z"/><path class="cls-3" d="M43.75,35.61H41.53a1,1,0,0,1-1-.63,1,1,0,0,1,.25-1.16c.81-.82,1.61-1.64,2.43-2.45a1,1,0,0,1,.59-.24c.73,0,1.46,0,2.18,0a1.26,1.26,0,0,1,1.31,1.32q0,.93,0,1.86A1.24,1.24,0,0,1,46,35.6Zm-2.13-1.08h4.24c.23,0,.32-.07.32-.3,0-.58,0-1.15,0-1.72,0-.24-.1-.31-.32-.31H44.1a.45.45,0,0,0-.28.09Z"/><path class="cls-3" d="M20.37,35.62c-.71,0-1.43,0-2.14,0a1.26,1.26,0,0,1-1.38-1.41q0-.9,0-1.8a1.23,1.23,0,0,1,1.24-1.29c.77,0,1.53,0,2.29,0a.8.8,0,0,1,.52.23c.81.8,1.6,1.61,2.4,2.42A1,1,0,0,1,23.6,35a1,1,0,0,1-1.05.62Zm2.05-1.1.07-.1c-.33-.3-.66-.59-1-.9s-.82-1-1.35-1.26a5.11,5.11,0,0,0-1.84,0h0c-.28,0-.36.1-.36.36q0,.8,0,1.59c0,.29.1.38.39.38,1.29,0,2.58,0,3.87,0Z"/></g></svg>