<svg xmlns="http://www.w3.org/2000/svg" xmlns:xlink="http://www.w3.org/1999/xlink" viewBox="0 0 64 64"><defs><style>.cls-1{fill:none;}.cls-2{clip-path:url(#clip-path);}.cls-3{fill:#047857;}</style><clipPath id="clip-path"><rect class="cls-1" x="-833.14" y="-886.59" width="921.26" height="574.43" transform="translate(-745.03 -1198.75) rotate(180)"/></clipPath></defs><g id="Calque_35" data-name="Calque 35"><path class="cls-3" d="M43.47,14a1.17,1.17,0,0,1,.72,1.16,4.43,4.43,0,0,1-.85,3.09c-.42.59-.74,1.25-1.12,1.87-.21.36-.49.46-.78.29s-.33-.47-.12-.82l1.38-2.35H26.28a3.45,3.45,0,0,0,.19.34c.45.78.92,1.55,1.36,2.33a1.26,1.26,0,0,1,.17.56q.43,8.28.85,16.54l.27,5c0,.5.18.66.69.66H35.2a2.42,2.42,0,0,1,.38,0,.52.52,0,0,1,0,1H30.18v.39c0,1.13,0,2.27,0,3.41A1.26,1.26,0,0,0,31.61,49h5.1A1.69,1.69,0,0,1,37,49a.51.51,0,0,1,.44.52A.49.49,0,0,1,37,50a1.69,1.69,0,0,1-.32,0H31.58a2.29,2.29,0,0,1-2.46-2.46V43.92a.39.39,0,0,0-.22-.42,1.49,1.49,0,0,1-.83-1.33c-.19-3.76-.38-7.51-.58-11.27-.17-3.38-.35-6.77-.53-10.15a1.19,1.19,0,0,0-.18-.55c-.59-1-1.2-2-1.79-3.07a1.77,1.77,0,0,1-.19-.69c0-.42,0-.84,0-1.26A1.09,1.09,0,0,1,25.46,14Zm-17.6,2.13H43.1V15.07H25.87Z"/><path class="cls-3" d="M36.94,25.32c.1,1.56.2,3.08.3,4.6.15,2.36.31,4.72.46,7.08,0,.25,0,.49.06.74a.54.54,0,0,1-.5.61.51.51,0,0,1-.55-.55q-.21-3.06-.41-6.14l-.54-8.17c0-.21,0-.42,0-.63A1.16,1.16,0,0,1,37,21.53h7.7A1.19,1.19,0,0,1,46,22.92q-.45,7-.91,14c-.13,2-.27,3.91-.4,5.86a2.1,2.1,0,0,1-1.06,1.75.44.44,0,0,0-.25.45c0,1.08,0,2.16,0,3.23A1.64,1.64,0,0,1,41.56,50H40.05a1.6,1.6,0,0,1-1.71-1.69c0-1.12,0-2.25,0-3.37a.44.44,0,0,0-.24-.45A2.06,2.06,0,0,1,37,42.78c-.08-.85-.12-1.71-.17-2.56,0-.41.18-.66.5-.67s.53.23.55.64l.15,2.39a1.15,1.15,0,0,0,1.26,1.17h3.09a1.11,1.11,0,0,0,1.22-1.12c.17-2.38.32-4.75.48-7.12.18-2.73.35-5.45.53-8.18,0-.66.08-1.32.12-2Zm7.9-1.09c0-.44,0-.84.09-1.25s-.06-.4-.37-.4H37.15l-.38,0,.1,1.62ZM39.4,44.82c0,1.22,0,2.42,0,3.62,0,.32.26.5.61.51h1.58c.54,0,.73-.19.73-.74,0-1,0-2.06,0-3.09,0-.1,0-.2,0-.3Z"/><path class="cls-3" d="M25.5,41.64H19.06c0,.46,0,.91,0,1.36s-.18.68-.53.68S18,43.44,18,43V39.3a1.23,1.23,0,0,1,.55-1.08.55.55,0,0,0,.17-.4c0-1.19,0-2.39,0-3.58,0-.86.25-1.16,1.09-1.36V30.79c0-1,0-2.07,0-3.1A5.1,5.1,0,0,1,21,24.35l.74-.88a1.2,1.2,0,0,1,2.07.31,10.46,10.46,0,0,1,.92,4.08c0,.61,0,1.22,0,1.83,0,.38-.21.62-.53.62s-.52-.24-.52-.62c0-.92,0-1.84,0-2.76l-.12,0c-.11.16-.21.32-.31.48a5.41,5.41,0,0,1-2.12,1.91.41.41,0,0,0-.27.42c0,1.05,0,2.11,0,3.18H23.7c0-.26,0-.53,0-.79a.53.53,0,0,1,.53-.6c.31,0,.51.23.52.59v.76c.93.29,1.09.52,1.09,1.49V37.8a.46.46,0,0,0,.24.48,1,1,0,0,1,.49.92c0,2.8,0,5.61,0,8.41A2.45,2.45,0,0,1,24.11,50H20.49A2.49,2.49,0,0,1,18,47.54c0-.67,0-1.33,0-2,0-.41.2-.66.52-.66s.53.24.53.64c0,.64,0,1.27,0,1.9A1.44,1.44,0,0,0,20.58,49h3.49a1.42,1.42,0,0,0,1.45-1.41c0-1.92,0-3.85,0-5.77C25.52,41.74,25.51,41.71,25.5,41.64ZM24.77,34H19.82v4.06h4.95Zm.74,6.56V39.16H19.09v1.39Zm-4.6-12.31A4.73,4.73,0,0,0,23,25.39a1.47,1.47,0,0,0-.1-1.11c-.12-.23-.23-.28-.4-.06l-.66.78A4.18,4.18,0,0,0,20.91,28.24Z"/></g></svg>