<svg xmlns="http://www.w3.org/2000/svg" xmlns:xlink="http://www.w3.org/1999/xlink" viewBox="0 0 64 64"><defs><style>.cls-1{fill:none;}.cls-2{clip-path:url(#clip-path);}.cls-3{fill:#d1fae5;}.cls-4{fill:#065f46;}.cls-5{fill:#34d399;}.cls-6{fill:#059669;}</style><clipPath id="clip-path"><rect class="cls-1" x="-833.14" y="-886.59" width="921.26" height="574.43" transform="translate(-745.03 -1198.75) rotate(180)"/></clipPath></defs><g id="Calque_35" data-name="Calque 35"><path class="cls-3" d="M15.68,14.87H25.91a1.23,1.23,0,0,1,.81,1.31c0,1.63,0,3.26,0,4.89-.06.12-.12.24-.19.36Q21.25,30.58,16,39.73a6.73,6.73,0,0,0-1,3.64h-.06c0-.2,0-.4,0-.6q0-13.31,0-26.6A1.23,1.23,0,0,1,15.68,14.87Z"/><path class="cls-4" d="M47.78,37.28c-1.6,0-3.21,0-4.82,0l-.5,0h-10l-.43,0,0,0H21.78a8.64,8.64,0,0,0-3.23.46c0,.06-.08.06-.13.06a.13.13,0,0,1-.13.08.14.14,0,0,1-.13.07.13.13,0,0,1-.11.06h0l-.07.07-.13.07a.11.11,0,0,1-.11.06h0a.46.46,0,0,1-.07.07.13.13,0,0,1-.13.07s0,0-.08,0l-.23.21-.09.07-.06.06-.07.07a.14.14,0,0,1-.13.07s0,.07-.07.07,0,.07-.06.07v0c0,.09-.08.13-.15.17l-.06.07a.23.23,0,0,0-.07.07l-.07.09a6.27,6.27,0,0,0-1.35,4,8.08,8.08,0,0,0,.28,1.62,1.79,1.79,0,0,0,.39.9A5.93,5.93,0,0,0,21,49.12c2.64,0,5.3,0,7.94,0h3.52c5.11,0,10.22,0,15.34,0a1.28,1.28,0,0,0,1.32-.74V38A1.33,1.33,0,0,0,47.78,37.28Zm-27,7a1.07,1.07,0,0,1-1-1,1.05,1.05,0,0,1,1-1,1,1,0,0,1,0,2.05Z"/><path class="cls-5" d="M39.45,22.72C38.72,24,38,25.29,37.22,26.59c0,.1-.15.19-.13.32h0s0,0,0,.07a14.85,14.85,0,0,1-1.53.93l-3.42,2a.14.14,0,0,1,0,.06,8.45,8.45,0,0,0-1,.56L19.75,37a4.87,4.87,0,0,0-1.2.76h0a.12.12,0,0,0-.1.06.14.14,0,0,0-.13.08.14.14,0,0,0-.13.07A.14.14,0,0,0,18,38l-.07.07a.13.13,0,0,0-.13.07h0a.16.16,0,0,0-.14.07.46.46,0,0,1-.07.07.15.15,0,0,0-.13.07h0l-.08.06-.23.21-.09.07-.06.06-.07.07h0a.17.17,0,0,0-.13.08l-.07.07-.06.07a.19.19,0,0,0-.15.19l-.06.07a.23.23,0,0,0-.07.07l-.07.09a6.26,6.26,0,0,0-1.35,4l-.05-.05a6.68,6.68,0,0,1,1-3.64q5.29-9.15,10.57-18.3a3,3,0,0,0,.19-.36l2.13-3.66c.16-.27.31-.55.48-.81a1,1,0,0,1,1.39-.37c.45.24.9.52,1.35.79l3.3,1.87L39,21A1.09,1.09,0,0,1,39.45,22.72Z"/><path class="cls-6" d="M47.23,34.79l-4,2.29-.3.19-.5,0h-10l-.44,0a.1.1,0,0,0,0,0H22.57a10.52,10.52,0,0,0-4,.46,4.87,4.87,0,0,1,1.2-.76L31,30.47a8.45,8.45,0,0,1,1-.56.14.14,0,0,0,0-.06l3.42-2A14.85,14.85,0,0,0,37,27s.08,0,.07-.06.2-.07.29-.12l4-2.28a1.05,1.05,0,0,1,1.63.43c1.56,2.72,3.14,5.43,4.7,8.15A1.07,1.07,0,0,1,47.23,34.79Z"/></g></svg>