<svg xmlns="http://www.w3.org/2000/svg" xmlns:xlink="http://www.w3.org/1999/xlink" viewBox="0 0 64 64"><defs><style>.cls-1{fill:none;}.cls-2{clip-path:url(#clip-path);}.cls-3{fill:#047857;}</style><clipPath id="clip-path"><rect class="cls-1" x="-833.14" y="-886.59" width="921.26" height="574.43" transform="translate(-745.03 -1198.75) rotate(180)"/></clipPath></defs><g id="Calque_35" data-name="Calque 35"><path class="cls-3" d="M36.13,42.17l2.44,2.64a1.3,1.3,0,0,1,.42,1A1.19,1.19,0,0,1,37.72,47H26.43a1.24,1.24,0,0,1-.95-2.21c.71-.74,1.39-1.5,2.09-2.25l.27-.33H16.09a1.83,1.83,0,0,1-2-2.06v-21a1.83,1.83,0,0,1,2-2.06H47.91a1.82,1.82,0,0,1,2,2V40.15a1.82,1.82,0,0,1-2,2H36.13Zm12.62-6V19.09c0-.68-.17-.85-.87-.85H16.11c-.69,0-.86.17-.86.86V36.17Zm0,1.24H15.25V40c0,.78.15.93.94.93h32a.6.6,0,0,0,.61-.59C48.76,39.4,48.75,38.42,48.75,37.41Zm-11,8.34-.08-.14c-1-1.1-2-2.2-3-3.29a.67.67,0,0,0-.42-.15c-1.47,0-2.94,0-4.41,0a.79.79,0,0,0-.5.22c-.95,1-1.88,2-2.82,3l-.25.31Z"/><path class="cls-3" d="M33.2,39.18A1.21,1.21,0,0,1,32,40.37,1.2,1.2,0,1,1,32,38,1.21,1.21,0,0,1,33.2,39.18Z"/></g></svg>