<svg xmlns="http://www.w3.org/2000/svg" xmlns:xlink="http://www.w3.org/1999/xlink" viewBox="0 0 64 64"><defs><style>.cls-1{fill:none;}.cls-2{clip-path:url(#clip-path);}.cls-3{fill:#047857;}</style><clipPath id="clip-path"><rect class="cls-1" x="-833.14" y="-886.59" width="921.26" height="574.43" transform="translate(-745.03 -1198.75) rotate(180)"/></clipPath></defs><g id="Calque_35" data-name="Calque 35"><path class="cls-3" d="M48.69,48.86v-.59H37a.89.89,0,0,1-.33,0,.5.5,0,0,1-.24-.3c0-.08.13-.21.24-.26s.21,0,.32,0H48.67V36.56H46c-.29,0-.59,0-.88,0s-.48,0-.47-.31.24-.28.46-.28h3.6V32.46H37a.7.7,0,0,1-.29,0,1.87,1.87,0,0,1-.34-.29,2.33,2.33,0,0,1,.36-.28c.07,0,.19,0,.29,0h8.69V15.49H37v15.2c0,.24.09.59-.31.58s-.27-.34-.27-.57q0-7.38,0-14.75v-.46H27.61v.41q0,8,0,16c0,.24.1.59-.3.58S27,32.1,27,31.87V15.48c0-.56,0-.59.57-.59h18.2c.53,0,.56,0,.56.56V31.87h2.4c.48,0,.53.05.53.53V48.9c0,.5,0,.54-.55.54H36.94c-.09,0-.21,0-.28,0s-.25-.19-.24-.26a.5.5,0,0,1,.24-.3c.09,0,.22,0,.33,0h11.7Z"/><path class="cls-3" d="M15.33,45.93h5.48a2.25,2.25,0,0,1,.58,0c.13,0,.24.18.35.28-.11.1-.22.27-.34.28-.4,0-.81,0-1.21,0H15.33v2.35H25.82c.1,0,.21,0,.29,0a2.79,2.79,0,0,1,.32.28,1.7,1.7,0,0,1-.31.29c-.06,0-.16,0-.25,0H15.29c-.54,0-.57,0-.57-.59V27.19c0-.56,0-.59.57-.59h10c.52,0,.56,0,.56.56v4.68l.1-.08c.16.14.45.27.45.41,0,.39-.34.28-.58.28H15.33v1.75h5.85c.11,0,.24,0,.32,0s.23.18.23.28a.46.46,0,0,1-.23.27.72.72,0,0,1-.33,0H15.33Zm6.4-18.72h-6.4v4.64h6.4Zm3.52,1.17H22.36v1.13h2.89Zm0-1.17H22.36v.54h2.89Zm-1.18,4.66v-.56h-.54v.56Zm.61,0h.56v-.54h-.56Zm0-1.17h.55v-.54h-.55Zm-.63,0v-.55h-.53v.55Zm-1.71-.56v.55h.55v-.55Zm0,1.72h.55v-.54h-.55Z"/><path class="cls-3" d="M34.07,47.1v.58h1.3c.31,0,.45.12.44.44s0,.61,0,.91-.11.41-.39.41h-4.5c-.26,0-.39-.11-.38-.37s0-.66,0-1,.13-.4.41-.4h1.33V47.1H22.9c-.53,0-.57,0-.57-.56q0-6.48,0-13c0-.5,0-.54.54-.54H43.46c.5,0,.55.05.55.54v13c0,.48-.06.53-.53.53H34.07Zm-11.13-.61H43.39V33.65H22.94Zm8.2,1.8v.54H35.2v-.54ZM32.9,47.1v.56h.54V47.1Z"/><path class="cls-3" d="M17,19.1c-.4-.61-.79-1.19-1.16-1.77a1.59,1.59,0,0,1-.11-.5,1.77,1.77,0,0,1,.5-.07c.68.14,1.35.3,2.07.47,0-.66.06-1.29.09-1.92a1,1,0,0,1,0-.29c.05-.13.11-.33.21-.36s.29.07.38.17c.4.43.78.88,1.16,1.32l.3.32,1.33-1.67c.07-.1.16-.22.26-.24.31-.07.37.15.39.39.06.7.12,1.4.19,2.16l.58-.14c.51-.14,1-.3,1.55-.42a.46.46,0,0,1,.41.07.51.51,0,0,1,0,.43c-.35.62-.72,1.23-1.11,1.89l1.62.61a1.5,1.5,0,0,1,.34.12,4.79,4.79,0,0,1,.41.36c-.13.12-.23.28-.38.35-.51.23-1,.44-1.54.66l-.4.18c.4.6.79,1.17,1.15,1.75a1.79,1.79,0,0,1,.12.53,1.8,1.8,0,0,1-.51.05c-.67-.14-1.33-.3-2-.46a2.85,2.85,0,0,0,0,.4c0,.59,0,1.19-.09,1.79,0,.13-.1.36-.18.37a.55.55,0,0,1-.42-.18c-.48-.52-.93-1.06-1.44-1.63l-.82,1a6.54,6.54,0,0,1-.53.65c-.1.11-.29.24-.4.21s-.21-.25-.23-.39c-.07-.62-.11-1.24-.16-1.86,0-.08,0-.16-.06-.29l-1.38.38a4.91,4.91,0,0,1-.63.17,2.91,2.91,0,0,1-.51,0,1.78,1.78,0,0,1,.09-.53c.33-.6.69-1.18,1.07-1.81L16,21c-.35-.13-.7-.24-1-.39-.11-.05-.26-.19-.26-.29s.13-.25.24-.31c.54-.25,1.09-.47,1.64-.71Zm-.26,3.95,1.68-.47c.45-.12.55,0,.59.4s.1,1.1.17,1.74l1-1.29c.36-.46.44-.47.83,0l1.08,1.24c0-.67.06-1.24.09-1.8,0-.39.13-.46.51-.38l1.75.4-.91-1.37c-.34-.5-.32-.57.23-.8L25.34,20l-1.57-.58c-.52-.19-.55-.28-.26-.77l.86-1.42-1.72.47c-.4.11-.5,0-.54-.37-.06-.56-.11-1.13-.17-1.77l-1,1.24c-.42.53-.46.53-.92,0l-1-1.18c0,.64-.05,1.17-.08,1.7s-.09.58-.6.46l-1.66-.37,1,1.45c.26.39.23.5-.2.68l-1.6.69,1.66.62c.38.15.43.28.22.63S17.13,22.48,16.78,23.05Z"/><path class="cls-3" d="M34.64,28.4c0,1.19,0,2.38,0,3.58,0,.34-.11.48-.47.48H29.24c-.33,0-.47-.11-.47-.45,0-2.44,0-4.87,0-7.31,0-.31.11-.45.42-.45q2.51,0,5,0c.33,0,.43.15.43.45C34.63,25.93,34.64,27.16,34.64,28.4Zm-5.26,3.44H34V28.38H29.38ZM34,27.76V24.87H29.38v2.89Z"/><path class="cls-3" d="M17.08,36v.59h4.21c.22,0,.45,0,.45.29s-.23.29-.45.29h-4.2v6.44h.38c1.27,0,2.54,0,3.81,0,.22,0,.45,0,.46.29s-.22.3-.45.3c-1.45,0-2.9,0-4.35,0-.35,0-.47-.14-.47-.48q0-3.91,0-7.83c0-.34.12-.48.47-.48h4.35c.23,0,.45,0,.45.31s-.24.28-.46.28Z"/><path class="cls-3" d="M46.7,44.2,46.24,44c-.4.41-.78.8-1.18,1.18-.15.15-.34.23-.5,0s0-.35.15-.49a3.43,3.43,0,0,0,.5-.43,1.78,1.78,0,0,0,.57-1.44,7.49,7.49,0,0,1,0-1.57,1.48,1.48,0,0,0-.42-1.16,5.2,5.2,0,0,0-.63-.61c-.17-.14-.34-.28-.16-.5s.38-.1.53,0c.38.36.75.75,1.14,1.15L46.7,40a4.56,4.56,0,0,0-1.79-1.8.84.84,0,0,1-.3-.32.27.27,0,0,1,.1-.24.71.71,0,0,1,.41,0,4.69,4.69,0,0,1,2.08,2c.12.23.24.37.52.34s.39.13.39.4v3.29c0,.27-.12.43-.39.39s-.4.11-.52.34a4.76,4.76,0,0,1-2.05,2c-.18.1-.38.19-.51,0s0-.37.24-.47A4.41,4.41,0,0,0,46.7,44.2Zm.8-.64v-2.9H47c-.48,0-.61.13-.62.6s0,.85,0,1.28C46.33,43.54,46.34,43.65,47.5,43.56Z"/><path class="cls-3" d="M42,24.26c.7,0,1.41,0,2.12,0,.34,0,.49.12.48.47,0,.68,0,1.36,0,2,0,.29-.12.43-.42.43-1.48,0-3,0-4.45,0-.3,0-.41-.14-.41-.43,0-.69,0-1.39,0-2.08,0-.32.15-.43.45-.43Zm-2.07,2.31h4V24.86h-4Z"/><path class="cls-3" d="M35.81,26.33v5.56c0,.1,0,.22,0,.29s-.19.25-.29.25-.21-.15-.28-.26a.7.7,0,0,1,0-.29V20.72c0-.09,0-.21,0-.28s.19-.26.29-.26.21.16.28.27,0,.19,0,.29Z"/><path class="cls-3" d="M37.57,25.72v-5c0-.09,0-.21,0-.28a.55.55,0,0,1,.3-.25c.07,0,.2.14.26.24s0,.19,0,.29v10c0,.1,0,.22,0,.29s-.19.23-.3.24-.2-.13-.26-.24,0-.19,0-.28Z"/><path class="cls-3" d="M46.35,35.39H45c-.3,0-.45-.11-.45-.43,0-.5,0-1,0-1.49,0-.32.14-.43.45-.43h2.63c.3,0,.45.11.44.42q0,.75,0,1.5c0,.32-.14.44-.44.43Zm1.15-.6V33.65H45.2v1.14Z"/><path class="cls-3" d="M27.61,48.86h1.91c.22,0,.42,0,.42.3s-.19.29-.41.29H27.45c-.29,0-.44-.1-.43-.4s0-.66,0-1a.48.48,0,0,1,.27-.34c.22-.05.31.13.31.34S27.61,48.56,27.61,48.86Z"/><path class="cls-3" d="M16.37,32.89c.18.21.37.33.38.46s-.23.28-.45.28-.43-.06-.38-.3S16.16,33.08,16.37,32.89Z"/><path class="cls-3" d="M17.72,33.7c-.12-.12-.32-.22-.34-.36s.2-.3.42-.3.42,0,.42.28S18,33.64,17.72,33.7Z"/><path class="cls-3" d="M19.26,33.78c-.2-.2-.4-.31-.42-.44s.2-.3.43-.3.44,0,.4.28S19.45,33.58,19.26,33.78Z"/><path class="cls-3" d="M20.65,33.7c-.12-.12-.32-.22-.34-.35,0-.28.19-.31.42-.31s.41,0,.42.28S21,33.64,20.65,33.7Z"/><path class="cls-3" d="M18.53,27.77c.71,0,1.43,0,2.15,0,.34,0,.49.1.49.46,0,.86,0,1.73,0,2.59,0,.36-.15.47-.49.47H16.37c-.33,0-.49-.11-.48-.46,0-.87,0-1.73,0-2.6,0-.35.14-.47.48-.46C17.09,27.78,17.81,27.77,18.53,27.77Zm-2,2.9h4.06V28.38H16.49Z"/><path class="cls-3" d="M19.15,22.52a2.33,2.33,0,0,1-.19-.39c0-.07.07-.18.12-.26l2.52-3.76a.71.71,0,0,1,.33-.26.29.29,0,0,1,.23.12.67.67,0,0,1-.05.4c-.36.57-.74,1.12-1.11,1.68l-1.44,2.16c-.08.12-.13.26-.2.39Z"/><path class="cls-3" d="M21.78,20.89a.79.79,0,0,1,.78.8.8.8,0,0,1-1.6,0A.8.8,0,0,1,21.78,20.89Zm0,1.07c.1-.12.21-.2.21-.27s-.11-.2-.18-.2a.31.31,0,0,0-.21.18C21.55,21.74,21.66,21.83,21.74,22Z"/><path class="cls-3" d="M19.41,19.43a.8.8,0,1,1,0-1.59.82.82,0,0,1,.8.79A.8.8,0,0,1,19.41,19.43Zm0-.5c.08-.14.18-.23.17-.3s-.14-.13-.21-.2c-.06.08-.17.15-.18.22S19.31,18.8,19.42,18.93Z"/><path class="cls-3" d="M30.83,27.18a2.24,2.24,0,0,1-.58,0c-.11,0-.29-.19-.27-.26s.16-.28.27-.29a5.62,5.62,0,0,1,1.16,0c.1,0,.28.18.27.25a.45.45,0,0,1-.27.3A2.25,2.25,0,0,1,30.83,27.18Z"/><path class="cls-3" d="M30.84,25.43a2.43,2.43,0,0,1,.54,0c.12,0,.22.18.32.27-.1.1-.19.28-.3.29a6.09,6.09,0,0,1-1.13,0c-.11,0-.21-.18-.31-.27.11-.1.21-.25.34-.29A1.94,1.94,0,0,1,30.84,25.43Z"/><path class="cls-3" d="M32.86,27.18c-.09,0-.21,0-.28,0s-.26-.18-.26-.27a.39.39,0,0,1,.25-.28,1.1,1.1,0,0,1,.54,0c.13,0,.23.18.35.28a3.07,3.07,0,0,1-.34.29c-.07,0-.17,0-.26,0Z"/><path class="cls-3" d="M32.88,26c-.08,0-.19,0-.25,0a3.08,3.08,0,0,1-.33-.3c.11-.1.2-.23.33-.27a1.47,1.47,0,0,1,.47,0c.21,0,.39.09.34.3s-.22.2-.34.28S33,26,32.88,26Z"/></g></svg>