<svg xmlns="http://www.w3.org/2000/svg" xmlns:xlink="http://www.w3.org/1999/xlink" viewBox="0 0 64 64"><defs><style>.cls-1{fill:none;}.cls-2{clip-path:url(#clip-path);}.cls-3{fill:#5c5a5a;}.cls-4{fill:#10b981;}.cls-5{fill:#dadadb;}.cls-6{fill:#059669;}.cls-7{fill:#fff;}.cls-8{fill:#065f46;}</style><clipPath id="clip-path"><rect class="cls-1" x="-833.14" y="-886.59" width="921.26" height="574.43" transform="translate(-745.03 -1198.75) rotate(180)"/></clipPath></defs><g id="Calque_35" data-name="Calque 35"><path class="cls-3" d="M29.6,50.58c-.1-.13-.26-.1-.4-.13A6.59,6.59,0,0,1,23.87,44c0-1,0-2.06,0-3.08a.69.69,0,0,0-.25-.57c-.34-.32-.66-.67-1-1a.77.77,0,0,1-.25-.61c0-.74,0-1.48,0-2.22,0-.38-.1-.5-.46-.58a10.22,10.22,0,0,1-7.67-7,9,9,0,0,1-.46-2.78c0-1,0-2,0-2.94,0-.24.07-.31.31-.3s.63,0,.94,0,.34-.07.34-.34c0-1.85,0-3.7,0-5.55a1.81,1.81,0,0,1,2-2c.27,0,.34-.06.34-.34A1.25,1.25,0,0,1,19,13.42a1.27,1.27,0,0,1,1.27,1.27q0,1,0,1.92a1.28,1.28,0,0,1-2.55,0,4.26,4.26,0,0,1,0-.62c.05-.37-.09-.47-.46-.45a1.29,1.29,0,0,0-1.32,1.34c0,1.92,0,3.84,0,5.77,0,.23.08.29.29.28s.68,0,1,0,.26.06.26.27c0,.92,0,1.84,0,2.75A6.81,6.81,0,0,0,31,27.31a7.05,7.05,0,0,0,.14-1.52c0-.87,0-1.74,0-2.61,0-.2.06-.28.27-.27s.63,0,.94,0,.23-.05.23-.23c0-2,0-4,0-6a1.23,1.23,0,0,0-1.26-1.16c-.71,0-.7,0-.71.65a2.37,2.37,0,0,1-.05.75,1.29,1.29,0,0,1-1.41.9A1.27,1.27,0,0,1,28,16.62c0-.65,0-1.3,0-2a1.27,1.27,0,0,1,1.26-1.24,1.24,1.24,0,0,1,1.28,1.21c0,.33.09.42.4.39a2.27,2.27,0,0,1,.69,0,1.79,1.79,0,0,1,1.46,1.82c0,1.89,0,3.77,0,5.66,0,.33.09.42.4.39s.7,0,1.06,0c.15,0,.24,0,.23.22a34.08,34.08,0,0,1-.14,4.52,10.34,10.34,0,0,1-7.93,8.26c-.39.08-.54.19-.51.61,0,.72,0,1.45,0,2.17a.79.79,0,0,1-.26.65c-.36.34-.7.7-1.05,1a.47.47,0,0,0-.19.37c0,1.29-.06,2.57,0,3.85a5.76,5.76,0,0,0,5,5.11,6.49,6.49,0,0,0,3.79-.51A5.55,5.55,0,0,0,36.77,44c0-4.5,0-9,0-13.5a6.5,6.5,0,0,1,3.8-6.18.39.39,0,0,0,.22-.4,4.7,4.7,0,0,1,8.93-1.81,4.66,4.66,0,0,1-5.18,6.55A4.5,4.5,0,0,1,41,25.4c-.1-.33-.21-.29-.43-.16a5.61,5.61,0,0,0-3,5c0,4.47-.08,8.93,0,13.39a6.67,6.67,0,0,1-5.76,6.86s-.05,0-.07.06ZM19.22,34.26h0a6.82,6.82,0,0,0,2.33,1,5.16,5.16,0,0,0,1.05.23c.23,0,.34.12.33.4,0,.79,0,1.59,0,2.38a1.1,1.1,0,0,0,.52,1.06c.22.23.44.45.65.68s.25.14.39,0c.31-.32.63-.63,1-.94a.62.62,0,0,0,.2-.48c0-.88,0-1.76,0-2.65,0-.3.11-.4.37-.44a9,9,0,0,0,3.19-1.1,9.66,9.66,0,0,0,4.71-6,15.12,15.12,0,0,0,.36-4.24c0-.79,0-.79-.8-.72-.51,0-1,0-1.52,0-.23,0-.3.07-.29.29,0,.7,0,1.4,0,2.1A7,7,0,0,1,29,31.56a7.17,7.17,0,0,1-7.78,1,7.44,7.44,0,0,1-3.35-3,.14.14,0,0,0-.08-.14h0c-.18-.51-.44-1-.58-1.51a14.37,14.37,0,0,1-.27-3.7c0-.79,0-.79-.82-.72-.48,0-1,0-1.44,0-.26,0-.3.1-.3.32,0,.64,0,1.28,0,1.92a9.41,9.41,0,0,0,1.25,4.95,9.11,9.11,0,0,0,3.47,3.55C19.1,34.24,19.16,34.25,19.22,34.26Zm26.28-6a4.1,4.1,0,1,0-4.15-4.07A4.14,4.14,0,0,0,45.5,28.22ZM18.21,15.63c0,.29,0,.58,0,.87a.78.78,0,0,0,.74.82.77.77,0,0,0,.77-.8c0-.59,0-1.18,0-1.78a.8.8,0,0,0-.77-.8.78.78,0,0,0-.74.82C18.2,15.05,18.21,15.34,18.21,15.63Zm10.31,0c0,.3,0,.6,0,.91a.75.75,0,0,0,.72.8.74.74,0,0,0,.75-.77c0-.6,0-1.21,0-1.81a.7.7,0,0,0-.75-.75c-.44,0-.7.29-.72.79C28.51,15,28.52,15.32,28.52,15.6Z"/><path class="cls-4" d="M19.07,34.18a9.11,9.11,0,0,1-3.47-3.55,9.41,9.41,0,0,1-1.25-4.95c0-.64,0-1.28,0-1.92,0-.22,0-.33.3-.32.48,0,1,0,1.44,0,0,.45,0,.89,0,1.34A7.14,7.14,0,0,0,17,28.42c.2.36.34.77.75,1h0c0,.06,0,.11.08.14a7.44,7.44,0,0,0,3.35,3,7.17,7.17,0,0,0,7.78-1,7,7,0,0,0,2.66-5.73c0-.7,0-1.4,0-2.1,0-.22.06-.3.29-.29.5,0,1,0,1.52,0a16.37,16.37,0,0,1-.22,3.35,9.93,9.93,0,0,1-5.17,7,8.73,8.73,0,0,1-2.86,1c-.26.05-.41.14-.39.47,0,.77,0,1.54,0,2.31a1,1,0,0,1-.37.88c-.36.28-.59.71-1,.91a1.1,1.1,0,0,1-.52-1.06c.05-.79,0-1.59,0-2.38,0-.28-.1-.36-.33-.4a5.16,5.16,0,0,1-1.05-.23c.06-.35-.12-.47-.43-.5l-.28-.06c-.56-.08-1.06-.36-1.62-.45h0A.14.14,0,0,0,19.07,34.18Z"/><path class="cls-5" d="M45.5,28.22a4.1,4.1,0,1,1,0-8.19,4.1,4.1,0,1,1,0,8.19Zm0-1.53a2.56,2.56,0,1,0-2.59-2.58A2.59,2.59,0,0,0,45.5,26.69Z"/><path class="cls-6" d="M23.43,39.33c.43-.2.66-.63,1-.91a1,1,0,0,0,.37-.88c0-.77,0-1.54,0-2.31,0-.33.13-.42.39-.47a8.73,8.73,0,0,0,2.86-1,9.93,9.93,0,0,0,5.17-7,16.37,16.37,0,0,0,.22-3.35c.8-.07.79-.07.8.72a15.12,15.12,0,0,1-.36,4.24,9.66,9.66,0,0,1-4.71,6A9,9,0,0,1,26,35.49c-.26,0-.38.14-.37.44,0,.89,0,1.77,0,2.65a.62.62,0,0,1-.2.48c-.32.31-.64.62-1,.94-.14.15-.25.16-.39,0S23.65,39.56,23.43,39.33Z"/><path class="cls-7" d="M18.21,15.63c0-.29,0-.58,0-.87a.78.78,0,0,1,.74-.82.8.8,0,0,1,.77.8c0,.6,0,1.19,0,1.78a.77.77,0,0,1-.77.8.78.78,0,0,1-.74-.82C18.2,16.21,18.21,15.92,18.21,15.63Z"/><path class="cls-7" d="M28.52,15.6c0-.28,0-.56,0-.83,0-.5.28-.78.72-.79a.7.7,0,0,1,.75.75c0,.6,0,1.21,0,1.81a.74.74,0,0,1-.75.77.75.75,0,0,1-.72-.8C28.51,16.2,28.52,15.9,28.52,15.6Z"/><path class="cls-6" d="M17.76,29.39c-.41-.2-.55-.61-.75-1a7.14,7.14,0,0,1-.91-3.62c0-.45,0-.89,0-1.34.82-.07.81-.07.82.72a14.37,14.37,0,0,0,.27,3.7C17.32,28.4,17.58,28.88,17.76,29.39Z"/><path class="cls-6" d="M19.22,34.25c.56.09,1.06.37,1.62.45l.28.06c.31,0,.49.15.43.5A6.82,6.82,0,0,1,19.22,34.25Z"/><path class="cls-6" d="M17.84,29.53c-.06,0-.07-.08-.08-.14A.14.14,0,0,1,17.84,29.53Z"/><path class="cls-3" d="M45.5,26.69a2.56,2.56,0,1,1,2.58-2.54A2.59,2.59,0,0,1,45.5,26.69Zm0-.56a2,2,0,1,0-2-2A2,2,0,0,0,45.51,26.13Z"/><path class="cls-8" d="M46.44,24.14a1,1,0,0,1-.95.95,1,1,0,0,1-1-.95,1,1,0,0,1,1-1A.93.93,0,0,1,46.44,24.14Z"/></g></svg>