<svg xmlns="http://www.w3.org/2000/svg" xmlns:xlink="http://www.w3.org/1999/xlink" viewBox="0 0 64 64"><defs><style>.cls-1{fill:none;}.cls-2{clip-path:url(#clip-path);}.cls-3{fill:#047857;}</style><clipPath id="clip-path"><rect class="cls-1" x="-833.14" y="-886.59" width="921.26" height="574.43" transform="translate(-745.03 -1198.75) rotate(180)"/></clipPath></defs><g id="Calque_35" data-name="Calque 35"><path class="cls-3" d="M14.32,36.47a39.11,39.11,0,0,1,1.19-8.68c.23-1,.48-2,.77-3a6.93,6.93,0,0,1,9.35-4.5,7.55,7.55,0,0,1,2.75,2.06,1.18,1.18,0,0,0,1,.47c1.75,0,3.49,0,5.23,0a1.19,1.19,0,0,0,.94-.43,7.07,7.07,0,0,1,4.77-2.61A7,7,0,0,1,47.77,25a58.69,58.69,0,0,1,1.71,8.5,18.48,18.48,0,0,1-.18,6.59,5.4,5.4,0,0,1-2.24,3.45,4.86,4.86,0,0,1-6.12-.66,13.39,13.39,0,0,1-2.75-3.64.48.48,0,0,0-.49-.3,5.75,5.75,0,0,1-3.65-1.33.82.82,0,0,0-.47-.19H30.41a.88.88,0,0,0-.48.18,5.68,5.68,0,0,1-3.65,1.34.5.5,0,0,0-.51.32,13.82,13.82,0,0,1-2.43,3.34,5.52,5.52,0,0,1-3.12,1.68,4.78,4.78,0,0,1-5.1-2.89,10.32,10.32,0,0,1-.79-3.67C14.3,37.29,14.32,36.88,14.32,36.47Zm33.82-.35c0-.57-.08-1.42-.17-2.27a57,57,0,0,0-1.72-8.57,5.4,5.4,0,0,0-9.5-1.94,2.62,2.62,0,0,1-2.11,1c-1.73,0-3.46,0-5.19,0a2.75,2.75,0,0,1-2.29-1.05,5.6,5.6,0,0,0-2.78-1.85,5.39,5.39,0,0,0-6.59,3.69c-.48,1.64-.86,3.32-1.2,5a27.84,27.84,0,0,0-.68,7.83,7.1,7.1,0,0,0,.93,3.3,3.06,3.06,0,0,0,3.06,1.5,4.07,4.07,0,0,0,2.39-1.29,13.49,13.49,0,0,0,2.47-3.57.86.86,0,0,1,1-.53,4.19,4.19,0,0,0,3.49-1.19,1.21,1.21,0,0,1,.73-.3q2,0,4.08,0a1.08,1.08,0,0,1,.68.24,4.28,4.28,0,0,0,3.62,1.25.78.78,0,0,1,.87.48q.3.59.63,1.14a9.6,9.6,0,0,0,2.63,3.11,3.24,3.24,0,0,0,2.58.63,3.41,3.41,0,0,0,2.59-2.5A12.62,12.62,0,0,0,48.14,36.12Z"/><path class="cls-3" d="M26.24,35.84a2.69,2.69,0,1,1,2.66-2.69A2.67,2.67,0,0,1,26.24,35.84Zm0-3.83a1.15,1.15,0,1,0,.05,2.3,1.17,1.17,0,0,0,1.12-1.18A1.15,1.15,0,0,0,26.2,32Z"/><path class="cls-3" d="M37.74,30.47a2.69,2.69,0,1,1-2.67,2.69A2.67,2.67,0,0,1,37.74,30.47Zm0,1.54a1.15,1.15,0,1,0,1.14,1.15A1.16,1.16,0,0,0,37.77,32Z"/><path class="cls-3" d="M21.6,26.24V25.17a.79.79,0,0,1,.78-.86.77.77,0,0,1,.75.84c0,.35,0,.69,0,1.09H24.2a.77.77,0,1,1,0,1.53h-1s0,0-.1.06v.93c0,.58-.31.93-.78.92s-.75-.36-.76-.91v-1h-1c-.58,0-.93-.3-.94-.76s.36-.77.94-.77Z"/><path class="cls-3" d="M30.07,29.69a3.68,3.68,0,0,1-.47,0,.76.76,0,0,1,0-1.52c.27,0,.53,0,.79,0a.75.75,0,0,1,.78.76.77.77,0,0,1-.78.77h-.35Z"/><path class="cls-3" d="M33.94,28.17c.13,0,.26,0,.39,0a.76.76,0,0,1,0,1.52,6.17,6.17,0,0,1-.86,0,.76.76,0,0,1,0-1.52C33.65,28.16,33.8,28.17,33.94,28.17Z"/><path class="cls-3" d="M40.44,27a.73.73,0,0,1-.74.75.76.76,0,0,1-.79-.76.77.77,0,0,1,.75-.76A.76.76,0,0,1,40.44,27Z"/><path class="cls-3" d="M41.61,28.17a.76.76,0,1,1-.77.73A.74.74,0,0,1,41.61,28.17Z"/><path class="cls-3" d="M40.84,25.09a.77.77,0,0,1,.77-.78.79.79,0,0,1,.76.76.79.79,0,0,1-.77.78A.77.77,0,0,1,40.84,25.09Z"/><path class="cls-3" d="M43.54,27.76a.75.75,0,0,1-.78-.76.77.77,0,1,1,1.53,0A.75.75,0,0,1,43.54,27.76Z"/></g></svg>