<svg xmlns="http://www.w3.org/2000/svg" xmlns:xlink="http://www.w3.org/1999/xlink" viewBox="0 0 64 64"><defs><style>.cls-1{fill:none;}.cls-2{clip-path:url(#clip-path);}.cls-3{fill:#047857;}</style><clipPath id="clip-path"><rect class="cls-1" x="-833.14" y="-886.59" width="921.26" height="574.43" transform="translate(-745.03 -1198.75) rotate(180)"/></clipPath></defs><g id="Calque_35" data-name="Calque 35"><path class="cls-3" d="M49.63,42.33a5.41,5.41,0,0,1-.37.72,1.75,1.75,0,0,1-1.5.7H46c-.07.41-.11.79-.21,1.15a4.51,4.51,0,0,1-4.38,3.33q-9.34,0-18.7,0A4.54,4.54,0,0,1,18.1,44c0-.08,0-.16,0-.29H16.19a1.77,1.77,0,0,1-1.82-1.87v-11A1.75,1.75,0,0,1,16.2,29c.62,0,1.24,0,1.85,0a10.12,10.12,0,0,1,.22-1.17,4.53,4.53,0,0,1,4.5-3.31c2.56,0,5.12,0,7.68,0h.45V23.2c0-.58,0-1.17,0-1.75a.38.38,0,0,0-.24-.42,2.77,2.77,0,0,1-1.37-3.16A2.8,2.8,0,1,1,33.34,21c-.1.06-.23.17-.23.25,0,1.07,0,2.13,0,3.24h.44c2.57,0,5.14,0,7.71,0a4.53,4.53,0,0,1,4.56,3.59c.06.28.08.56.13.89.48,0,1,0,1.46,0a2,2,0,0,1,2.23,1.4ZM32,26.73H22.79a2.32,2.32,0,0,0-2.49,2.49q0,7.17,0,14.33A2.33,2.33,0,0,0,22.72,46H41.28a2.34,2.34,0,0,0,2.43-2.44q0-7.22,0-14.43a2.79,2.79,0,0,0-.12-.81,2.32,2.32,0,0,0-2.37-1.62Zm-14,14.8V31.24H16.59V41.53Zm29.34,0V31.24H45.93V41.53l.25,0Zm-14.8-23A.63.63,0,0,0,32,18a.61.61,0,0,0-.63.59.61.61,0,1,0,1.21,0Z"/><path class="cls-3" d="M32,38.2h5.51a1.15,1.15,0,0,1,1.31,1.31v2.85a1.1,1.1,0,0,1-1.18,1.19c-3.76,0-7.53,0-11.29,0a1.1,1.1,0,0,1-1.18-1.21c0-.93,0-1.86,0-2.79s.4-1.34,1.34-1.35Zm4.6,2.23h-9.2v.9h9.2Z"/><path class="cls-3" d="M25.47,35.17a2.9,2.9,0,1,1,2.94-2.91A2.9,2.9,0,0,1,25.47,35.17Zm0-3.59a.69.69,0,0,0-.69.71.7.7,0,0,0,.71.68.71.71,0,0,0,.69-.71A.7.7,0,0,0,25.49,31.58Z"/><path class="cls-3" d="M38.51,35.17a2.9,2.9,0,1,1,2.9-2.87A2.91,2.91,0,0,1,38.51,35.17Zm0-2.2a.7.7,0,0,0,0-1.39.7.7,0,1,0,0,1.39Z"/></g></svg>