<svg xmlns="http://www.w3.org/2000/svg" xmlns:xlink="http://www.w3.org/1999/xlink" viewBox="0 0 64 64"><defs><style>.cls-1{fill:none;}.cls-2{clip-path:url(#clip-path);}.cls-3{fill:#047857;}</style><clipPath id="clip-path"><rect class="cls-1" x="-833.14" y="-886.59" width="921.26" height="574.43" transform="translate(-745.03 -1198.75) rotate(180)"/></clipPath></defs><g id="Calque_35" data-name="Calque 35"><path class="cls-3" d="M24.71,24.18l-1.36.95a.64.64,0,0,1-1-.18c-.45-.63-.89-1.27-1.33-1.9a.64.64,0,0,1,.19-1L32.74,14a.76.76,0,0,1,1,0c.93.66,1.87,1.31,2.8,1.95l.36.24v-1.6c0-.58.2-.79.77-.79H41c.55,0,.75.21.75.76,0,1.55,0,3.09,0,4.64a.66.66,0,0,0,.31.62c1.07.72,2.12,1.46,3.18,2.2.49.34.54.63.2,1.12l-1.26,1.81c-.34.48-.61.53-1.11.18s-.83-.57-1.3-.9c0,.19,0,.32,0,.45v6.49a2.38,2.38,0,0,1,0,.38.61.61,0,0,1-1.19,0,2.38,2.38,0,0,1,0-.38c0-2.48,0-5,0-7.45a.58.58,0,0,0-.28-.55l-6.73-4.69a.41.41,0,0,0-.56,0q-3.38,2.37-6.76,4.71a.57.57,0,0,0-.27.53q0,3.73,0,7.45a2.38,2.38,0,0,1,0,.38.61.61,0,0,1-1.19,0,1.85,1.85,0,0,1,0-.41ZM23,23.85c.13-.09.24-.15.34-.23l9.28-6.46c.5-.34.63-.34,1.12,0L43,23.57l.41.28.76-1.09A1.24,1.24,0,0,0,44,22.6q-5.26-3.66-10.52-7.33a.35.35,0,0,0-.49,0L22.5,22.58c-.07.05-.14.12-.22.19ZM40.51,15H38.09v.59a3.36,3.36,0,0,0,0,1.39c.19.37.72.56,1.1.83l1.27.89Z"/><path class="cls-3" d="M26.52,44a4,4,0,0,1,2.94-1c3.21,0,6.43,0,9.64,0a4.61,4.61,0,0,0,4-2c1.85-2.6,3.65-5.23,5.46-7.85a2.29,2.29,0,0,0,.31-.65,1.51,1.51,0,0,0-.6-1.89,1.63,1.63,0,0,0-2.06.23l-3.39,3.38a1.38,1.38,0,0,1-.31.28.6.6,0,0,1-.82-.84.86.86,0,0,1,.18-.2c1.15-1.16,2.3-2.32,3.46-3.46a2.87,2.87,0,0,1,3.84-.23,2.72,2.72,0,0,1,.84,3.15,5,5,0,0,1-.57,1.1L44.4,41.3A6.17,6.17,0,0,1,40.45,44a7.64,7.64,0,0,1-1.36.11H29a2.09,2.09,0,0,0-1.63.64l.71.68a.61.61,0,0,1,0,1L24.6,50a.61.61,0,0,1-1,0L14,40.4a.61.61,0,0,1,0-1l3.52-3.52c.37-.36.66-.33,1.07.08l7.63,7.63A3,3,0,0,1,26.52,44ZM26.79,46,18,37.25l-2.65,2.64,8.78,8.78Z"/><path class="cls-3" d="M31.56,33.22h6.57a3,3,0,0,1,2,5.3,2.89,2.89,0,0,1-2,.77H31.49c-.46,0-.71-.22-.7-.61s.25-.6.72-.6c2.19,0,4.38,0,6.57,0a1.83,1.83,0,1,0,0-3.65h-6c-2.2,0-4.4,0-6.6,0A5.17,5.17,0,0,0,21.63,36a2.73,2.73,0,0,1-.25.23.59.59,0,0,1-.85,0,.56.56,0,0,1,0-.84,6.52,6.52,0,0,1,3.4-2,9,9,0,0,1,1.47-.15Z"/><path class="cls-3" d="M35.65,25.94H30.79v5.43A.6.6,0,0,1,30,32a.54.54,0,0,1-.39-.58c0-2,0-4,0-6a.6.6,0,0,1,.68-.68c2,0,3.95,0,5.93,0a.6.6,0,0,1,.68.68v5.93a.6.6,0,0,1-.6.68c-.39,0-.61-.25-.61-.71,0-1.63,0-3.27,0-4.9Z"/></g></svg>