<svg xmlns="http://www.w3.org/2000/svg" xmlns:xlink="http://www.w3.org/1999/xlink" viewBox="0 0 64 64"><defs><style>.cls-1{fill:none;}.cls-2{clip-path:url(#clip-path);}.cls-3{fill:#047857;}</style><clipPath id="clip-path"><rect class="cls-1" x="-833.14" y="-886.59" width="921.26" height="574.43" transform="translate(-745.03 -1198.75) rotate(180)"/></clipPath></defs><g id="Calque_35" data-name="Calque 35"><path class="cls-3" d="M50.26,27.66l-1.92.53a4.59,4.59,0,0,1,.76,3.48,4.23,4.23,0,0,1-1.51,3.25l.65.21a.4.4,0,0,1,.16.73,1.12,1.12,0,0,1-.42.27,1.89,1.89,0,0,0-1.4,1.78,14.08,14.08,0,0,0,0,2c0,.09.15.22.26.26.48.18,1,.34,1.47.51a2.48,2.48,0,0,1,.54.27,1.74,1.74,0,0,1,.3.36,1.45,1.45,0,0,1-.38.22l-5.6,1.36L29.41,46.16a1.47,1.47,0,0,1-.72,0L15.83,42a2.44,2.44,0,0,1-1.49-1.39A6.31,6.31,0,0,1,14,36.2a8.2,8.2,0,0,1,.7-1.43c-.16,0-.38-.08-.59-.15a1.49,1.49,0,0,1-.31-.2c.08-.11.13-.27.24-.32a14.4,14.4,0,0,1,1.57-.65c.75-.26.77-.24.82-1a3.71,3.71,0,0,0-.47-2.4,3.06,3.06,0,0,0-.75-.62,7.94,7.94,0,0,1-.7-.4c-.29-.25-.19-.59.17-.71l1.42-.43a6,6,0,0,1-1-5.24,2.52,2.52,0,0,1,2.32-2.12c3.2-.43,6.4-.89,9.6-1.33l9.48-1.33a2.66,2.66,0,0,1,1.22.09l11.48,3.46c.22.07.54.11.5.4s-.25.39-.39.57a.39.39,0,0,1-.19.1,2,2,0,0,0-1.44,2.06c-.06.52,0,1.05,0,1.57,0,.22.09.31.29.36.41.12.82.25,1.22.41s.75.39,1.12.58Zm-20.1,3c0-.26,0-.47.05-.69,0-1.1.05-2.2.1-3.31a.44.44,0,0,0-.37-.52l-12.34-4c-.69-.22-1.16,0-1.37.65a5,5,0,0,0,.21,3.55,1.27,1.27,0,0,0,.83.73l7.16,2Zm-1.1,13.68c0-.13,0-.22,0-.31,0-1.24.07-2.47.13-3.7,0-.3-.07-.41-.35-.5l-12.34-4c-.74-.24-1.2,0-1.42.72A4.92,4.92,0,0,0,15.32,40a1.31,1.31,0,0,0,.88.77l9.66,2.69Zm4.79-6.85.44-.11c4.06-1.14,8.12-2.29,12.19-3.41a1.64,1.64,0,0,0,1.23-1.11,5.4,5.4,0,0,0,.17-3c-.18-.84-.7-1.16-1.41-.93L34,33a.35.35,0,0,0-.29.4c0,1.21.08,2.42.12,3.63C33.82,37.19,33.84,37.33,33.85,37.5Zm-16.8-4,16.08,4L33,33.16,16.67,29.81A6.94,6.94,0,0,1,17.05,33.52ZM47.34,23,31,26.32l-.14,4.36,16.08-4A7,7,0,0,1,47.34,23ZM29.78,44.36l2.37-.59,13.39-3.33c.28-.07.34-.18.3-.43s-.06-.71-.07-1.07a5.21,5.21,0,0,1,.45-2.27l-.37,0c-2.57.53-5.14,1.13-7.73,1.57-1.71.28-3.3,1-5.06,1.09A16.84,16.84,0,0,0,30.2,40c-.11,0-.27.15-.27.23C29.87,41.55,29.82,42.93,29.78,44.36Z"/></g></svg>