<svg xmlns="http://www.w3.org/2000/svg" xmlns:xlink="http://www.w3.org/1999/xlink" viewBox="0 0 64 64"><defs><style>.cls-1{fill:none;}.cls-2{clip-path:url(#clip-path);}.cls-3{fill:#047857;}</style><clipPath id="clip-path"><rect class="cls-1" x="-833.14" y="-886.59" width="921.26" height="574.43" transform="translate(-745.03 -1198.75) rotate(180)"/></clipPath></defs><g id="Calque_35" data-name="Calque 35"><path class="cls-3" d="M42.75,14a1,1,0,0,1,.54,1c0,.36,0,.72,0,1.13h.65a.89.89,0,0,1,1,1v6.18c0,.43-.18.66-.51.66s-.51-.21-.51-.65c0-1.89,0-3.79,0-5.69v-.44H28.12V32.79a.56.56,0,0,0,.31.59c.3.17.57.37.89.59.15-.54.57-.54,1-.54h1.75c.78,0,1,.18,1,.94s0,1.22,0,1.83a.53.53,0,0,0,.19.36c.27.21.57.39.92.62v-.87c0-.73,0-1.45,0-2.18,0-.42.19-.67.59-.68q1.25,0,2.49,0a.57.57,0,0,1,.6.64c0,1.12,0,2.24,0,3.37,0,.43-.25.64-.71.64h-2a1.32,1.32,0,0,1-.42,1.52,1.4,1.4,0,0,1-1.69,0V47.1h6.26a.43.43,0,0,0,.46-.26,2.5,2.5,0,0,1,1.5-1.24,2.22,2.22,0,0,0,.46-.29l0-.1H39.82c-.63,0-.84-.21-.84-.85v-3c0-.62.21-.83.82-.83h2.14c.53,0,.74.22.74.75,0,1.07,0,2.13,0,3.2.37-.08.72-.15,1.07-.25.06,0,.12-.12.14-.19a1.71,1.71,0,0,0,0-.32q0-8.34,0-16.68a2.58,2.58,0,0,1,0-.48.45.45,0,0,1,.47-.4.48.48,0,0,1,.5.41,1.94,1.94,0,0,1,0,.42q0,8.47,0,17a.47.47,0,0,0,.35.53,3.17,3.17,0,0,1,2,2.59l.41,0A1.44,1.44,0,0,1,49,48.56,1.43,1.43,0,0,1,47.67,50h-31a1.49,1.49,0,0,1-1.52-.91,1.44,1.44,0,0,1,1.34-2h2.64V45.45c0-.43.19-.67.51-.67s.52.23.53.68v1.62h.51V41.85c0-.73.27-1,1-1h2.84c.71,0,1,.27,1,1v5.25H32v-.37c0-2.5,0-5,0-7.48a.56.56,0,0,0-.28-.54q-2.71-1.78-5.41-3.6a.4.4,0,0,0-.52,0c-1.8,1.22-3.61,2.42-5.43,3.62a.5.5,0,0,0-.26.48c0,.87,0,1.73,0,2.6,0,.11,0,.21,0,.32a.51.51,0,0,1-1,0c0-.45,0-.89,0-1.34V39.67a4.66,4.66,0,0,1-1,.22A1.24,1.24,0,0,1,16.93,39a1.27,1.27,0,0,1,.53-1.45c.72-.5,1.45-1,2.19-1.45a.51.51,0,0,0,.27-.51,6.59,6.59,0,0,1,0-.77.77.77,0,0,0-.25-.72.79.79,0,0,1-.17-.47,4.59,4.59,0,0,1,0-.74.82.82,0,0,1,.87-.92c.78,0,1.55,0,2.32,0a.84.84,0,0,1,.89.92c0,.17,0,.34,0,.59l1.33-.89c.19-.13.4-.25.58-.39a.87.87,0,0,1,1.16,0,4.49,4.49,0,0,0,.45.29V32c0-4.88,0-9.76,0-14.64,0-.78.31-1.3,1.21-1.21h.45c0-.39,0-.76,0-1.12A1,1,0,0,1,29.26,14ZM32,48.13H16.8a1.11,1.11,0,0,0-.45,0c-.13.07-.3.24-.3.36s.17.3.3.4.23,0,.35,0H47.31c.12,0,.27,0,.35,0s.3-.25.29-.36a.6.6,0,0,0-.3-.4c-.11-.07-.29,0-.44,0Zm-7.6-1V41.92H21.69v5.17Zm17.84-32H29.78v1.09H42.24Zm-8,23.48a1.85,1.85,0,0,0-.32-.3L26.33,33.2a.42.42,0,0,0-.55,0l-7.56,5c-.07,0-.16.08-.19.15s-.11.28-.06.35.23.11.35.09.2-.11.3-.18l6.8-4.52c.56-.38.73-.38,1.3,0l6.83,4.55a1.83,1.83,0,0,0,.3.18C34.06,38.93,34.18,38.82,34.24,38.56Zm12,8.53a2.37,2.37,0,0,0-.11-.41,2.16,2.16,0,0,0-3.73-.57,1.07,1.07,0,0,1-.71.45,1.13,1.13,0,0,0-.8.53ZM40,41.58v2.59h1.61V41.58Zm-3.2-7.1H35.2v2.57h1.63Zm-6.44,0-.07.13c.53.39,1.09.75,1.66,1.12V34.48Zm-9.88-1.12h2l0-.36h-2Zm1.61,1.06H21v.77Z"/><path class="cls-3" d="M28.66,45.21h-2c-.44,0-.62-.18-.63-.62,0-.74,0-1.49,0-2.24,0-.51.26-.74.77-.74h3.79c.52,0,.76.23.76.74,0,.75,0,1.5,0,2.25,0,.43-.18.6-.62.61Zm1.62-1V42.64H27v1.53Z"/><path class="cls-3" d="M29.33,28.65V27.07c0-.5.23-.74.73-.75.75,0,1.5,0,2.24,0a.66.66,0,0,1,.74.74c0,1.07,0,2.13,0,3.19a.65.65,0,0,1-.73.74c-.75,0-1.5,0-2.24,0-.52,0-.73-.24-.74-.77Zm1.05,1.29H32V27.37h-1.6Z"/><path class="cls-3" d="M29.33,21.53V20a.65.65,0,0,1,.74-.73h2.24a.64.64,0,0,1,.73.7c0,1.09,0,2.18,0,3.26a.63.63,0,0,1-.7.7c-.77,0-1.55,0-2.32,0a.63.63,0,0,1-.69-.7ZM32,22.84V20.27h-1.6v2.57Z"/><path class="cls-3" d="M42.69,28.66c0,.54,0,1.08,0,1.62s-.21.7-.67.71c-.79,0-1.57,0-2.35,0A.62.62,0,0,1,39,30.3c0-1.09,0-2.19,0-3.29a.64.64,0,0,1,.72-.69c.76,0,1.52,0,2.28,0,.48,0,.7.24.7.72S42.69,28.13,42.69,28.66Zm-1,1.29V27.38H40V30Z"/><path class="cls-3" d="M42.69,35.76c0,.53,0,1.07,0,1.61a.64.64,0,0,1-.73.73H39.71a.64.64,0,0,1-.73-.71c0-1.08,0-2.17,0-3.26a.63.63,0,0,1,.71-.69c.75,0,1.51,0,2.27,0,.51,0,.72.24.72.74S42.69,35.23,42.69,35.76Zm-1,1.3V34.49H40v2.57Z"/><path class="cls-3" d="M42.69,21.55c0,.53,0,1.05,0,1.58s-.21.74-.71.75q-1.14,0-2.28,0a.64.64,0,0,1-.71-.72c0-1.08,0-2.15,0-3.23,0-.49.25-.71.76-.71h2.2c.52,0,.74.23.74.76S42.69,21,42.69,21.55Zm-1,1.3V20.27H40v2.58Z"/><path class="cls-3" d="M37.86,28.66c0,.52,0,1.05,0,1.58s-.22.75-.74.76c-.74,0-1.48,0-2.21,0-.52,0-.74-.24-.75-.76V27.08c0-.53.23-.75.78-.76h2.14c.56,0,.77.23.78.8ZM35.2,27.37v2.57h1.62V27.37Z"/><path class="cls-3" d="M34.16,21.55V20c0-.53.23-.75.75-.75h2.21c.5,0,.73.22.74.72,0,1.07,0,2.15,0,3.22,0,.49-.22.71-.71.72q-1.14,0-2.28,0c-.48,0-.7-.23-.71-.72Zm1,1.29h1.63V20.27H35.19Z"/><path class="cls-3" d="M37.86,42.85c0,.57,0,1.14,0,1.72s-.18.63-.64.64H34.77c-.42,0-.6-.19-.6-.6,0-1.16,0-2.31,0-3.47,0-.4.18-.58.58-.59h2.52c.4,0,.58.18.59.58C37.87,41.7,37.86,42.28,37.86,42.85Zm-2.66,1.3h1.61V41.58H35.2Z"/></g></svg>