<svg xmlns="http://www.w3.org/2000/svg" xmlns:xlink="http://www.w3.org/1999/xlink" viewBox="0 0 64 64"><defs><style>.cls-1{fill:none;}.cls-2{clip-path:url(#clip-path);}.cls-3{fill:#047857;}</style><clipPath id="clip-path"><rect class="cls-1" x="-833.14" y="-886.59" width="921.26" height="574.43" transform="translate(-745.03 -1198.75) rotate(180)"/></clipPath></defs><g id="Calque_35" data-name="Calque 35"><path class="cls-3" d="M17.78,43.5V42.22H16.39a1.63,1.63,0,0,1-1.81-1.82c0-.65,0-1.31,0-2,0-.25.07-.45.37-.44s.35.21.35.46v2.06a.9.9,0,0,0,.95,1H34V37.24H18.87c-.23,0-.39-.12-.39-.36a.33.33,0,0,1,.38-.36H20c0-.09,0-.15,0-.2,0-2,0-3.9,0-5.84a2.28,2.28,0,0,0-1.56-2.18,2.32,2.32,0,0,0-2.58.75,2.46,2.46,0,0,0-.51,1.63v6a.77.77,0,0,1,0,.34c-.07.12-.2.27-.3.27a.6.6,0,0,1-.37-.23c-.05-.07,0-.2,0-.31V30.65a3,3,0,0,1,2.47-3.12c.23-.05.23-.18.23-.35,0-.87,0-1.74,0-2.62a2.81,2.81,0,0,1,3-3H36.19a2.82,2.82,0,0,1,3,3c0,.24,0,.49,0,.73a.32.32,0,0,1-.35.35.32.32,0,0,1-.35-.35c0-.28,0-.56,0-.84a2.09,2.09,0,0,0-2.2-2.2h-16A2.11,2.11,0,0,0,18,24.54v2.59c0,.11,0,.22,0,.36a3,3,0,0,1,2,1.11,7,7,0,0,0,.13-2.73c-.09-.42,0-.55.4-.65a7.81,7.81,0,0,1,3.12,0c.51.07,1,.14,1.53.17a1.72,1.72,0,0,0,.67-.11c.37-.11.57,0,.67.39a6.5,6.5,0,0,1,0,2.6,6.37,6.37,0,0,0,0,2.85h.37c1.66,0,3.31,0,5,0A4.31,4.31,0,0,1,35,32.38a2.11,2.11,0,0,0,.61.25c0-.74,0-1.37,0-2a3.06,3.06,0,0,1,2.86-3.09v-.74c0-.23.12-.39.36-.39a.31.31,0,0,1,.35.38c-.11.62.16.86.74,1.1a2.82,2.82,0,0,1,1.77,2.66c0,.65,0,1.31,0,2h1.15l-.12-.26a3.33,3.33,0,0,1,.57-3.83,1.1,1.1,0,0,0,.28-.8V25.94H42.43c0,.65,0,1.29,0,1.94a.6.6,0,0,1-.25.43c-.23.13-.44-.07-.45-.39v-2H40.49c-.51,0-.64-.22-.42-.68.86-1.76,1.73-3.52,2.58-5.28a.57.57,0,0,1,.58-.35q1.6,0,3.21,0a.59.59,0,0,1,.61.37l2.58,5.27c.19.38,0,.64-.41.64-.91,0-1.82,0-2.73,0H46.1v2.2c.37,0,.5.28.65.56a3.84,3.84,0,0,1,.24,3.4c0,.11-.08.21-.13.36h.66a1.27,1.27,0,0,1,1.35,1.35c0,3.08,0,6.16,0,9.24v.43c.11,0,.24,0,.29.11a.61.61,0,0,1,.17.35.43.43,0,0,1-.23.27.9.9,0,0,1-.37,0H17c-.09,0-.21,0-.27,0s-.29-.21-.32-.34a.29.29,0,0,1,.32-.36C17.05,43.49,17.4,43.5,17.78,43.5ZM34.37,32.91a3.52,3.52,0,0,0-2.48-1c-2.51,0-5,0-7.55,0-2.19,0-4.11,1.77-3.62,4.73H34c0-.8,0-1.6,0-2.4A1.5,1.5,0,0,1,34.37,32.91Zm13.79,5.2c0-1.4,0-2.76,0-4.13,0-.51-.17-.69-.69-.69h-12c-.58,0-.75.18-.75.76v3.74c0,.1,0,.2,0,.32Zm0,5.49V38.83H34.72V43.6Zm.62-18.42c0-.05,0-.09,0-.12-.74-1.5-1.47-3-2.21-4.51a.47.47,0,0,0-.36-.18H43.55a.41.41,0,0,0-.44.29q-1,2.12-2.06,4.23a3,3,0,0,0-.13.3Zm-28,5.68c.94.1,1.81.17,2.67.29a7.52,7.52,0,0,0,2.32,0,8,8,0,0,1,.06-2.89,4.82,4.82,0,0,0,.07-2,8.41,8.41,0,0,1-.87,0c-.77-.09-1.53-.21-2.29-.3a4.9,4.9,0,0,0-1.83.05,7.24,7.24,0,0,1-.15,2.63A6.92,6.92,0,0,0,20.79,30.86ZM41,32.56c0-.73,0-1.42,0-2.1a2.3,2.3,0,0,0-2.13-2.14A2.21,2.21,0,0,0,36.44,30a18.65,18.65,0,0,0-.18,2.61Zm-19,11H34V42.38h-12Zm22.94-11c.32,0,.63,0,.95,0a.37.37,0,0,0,.28-.12,3.12,3.12,0,0,0,0-3.29.42.42,0,0,0-.31-.15c-.61,0-1.23,0-1.85,0a.57.57,0,0,0-.36.2,2.64,2.64,0,0,0-.12,3,.63.63,0,0,0,.69.39A5.3,5.3,0,0,1,44.88,32.57Zm-26.36,11h2.65V42.38H18.52ZM45.35,25.94h-1v2.32h1Zm-23,5.64c-.54,0-1,.06-1.49.11,0,0-.14.1-.14.16,0,.38,0,.77,0,1.15Z"/><path class="cls-3" d="M14.94,44.37h-.21c-.25,0-.44-.09-.43-.38s.19-.34.43-.35h.42c.23,0,.42.09.42.36s-.18.36-.42.37Z"/><path class="cls-3" d="M40,35.7a1.4,1.4,0,1,1,2.79,0,1.39,1.39,0,0,1-1.4,1.4A1.36,1.36,0,0,1,40,35.7Zm2.06,0a.68.68,0,0,0-1.35,0,.67.67,0,0,0,.68.68A.64.64,0,0,0,42.1,35.68Z"/><path class="cls-3" d="M41.41,42.64A1.36,1.36,0,0,1,40,41.23a1.4,1.4,0,1,1,1.37,1.41Zm.69-1.44a.64.64,0,0,0-.66-.66.66.66,0,0,0-.69.68.68.68,0,0,0,.71.66A.64.64,0,0,0,42.1,41.2Z"/></g></svg>