<svg xmlns="http://www.w3.org/2000/svg" xmlns:xlink="http://www.w3.org/1999/xlink" viewBox="0 0 64 64"><defs><style>.cls-1{fill:none;}.cls-2{clip-path:url(#clip-path);}.cls-3{fill:#047857;}</style><clipPath id="clip-path"><rect class="cls-1" x="-833.14" y="-886.59" width="921.26" height="574.43" transform="translate(-745.03 -1198.75) rotate(180)"/></clipPath></defs><g id="Calque_35" data-name="Calque 35"><path class="cls-3" d="M32.56,14.13a9.88,9.88,0,0,1,1.06.31,1.17,1.17,0,0,1,.85,1.25,4.25,4.25,0,0,0,.05.8,1.34,1.34,0,0,0,1.2,1.27c.89.16,1.79.26,2.68.42a8.08,8.08,0,0,1,2.78,1A2.09,2.09,0,0,1,42,22.38a27.4,27.4,0,0,0-2.31,4.13,9.87,9.87,0,0,0-.93,5.29,11.17,11.17,0,0,0,.64,2.48c.33.87.8,1.68,1.26,2.61l2.61-6.17c-.42-.24-.84-.47-1.25-.73a2.51,2.51,0,0,1-1-3.18c.18-.4.44-.53.76-.38s.36.4.19.8a1.44,1.44,0,0,0,.47,1.8c.38.27.8.48,1.23.74a2.61,2.61,0,0,1,2-1.85,2.4,2.4,0,0,1,1.81.29,2.48,2.48,0,0,1,1.2,1.87,3,3,0,0,1-.7,2.15l.18.13A3,3,0,0,1,49,36.52c-1.16,1.84-2.34,3.66-3.51,5.5a1.9,1.9,0,0,0,.31,2.55,2,2,0,0,0,1.21.48,2.92,2.92,0,0,1,2.76,3.05c0,.4,0,.79,0,1.19s-.19.53-.5.53a.47.47,0,0,1-.52-.52c0-.47,0-.93,0-1.4a1.87,1.87,0,0,0-1.79-1.81A3,3,0,0,1,44.08,43a3.06,3.06,0,0,1,.52-1.57L48.07,36a1.92,1.92,0,0,0-.71-2.88l-.18.23-4.69,7.14a.75.75,0,0,0-.09.51,17.06,17.06,0,0,1,.41,3.7,1.45,1.45,0,0,1-1.51,1.55H39a.48.48,0,0,0-.48.25c-.66,1-1.32,2-2,3a.53.53,0,0,1-.8.2.51.51,0,0,1-.14-.68c.36-.85.71-1.7,1.06-2.55a1.08,1.08,0,0,0,.06-.19h-3v2.45c0,.18,0,.35,0,.53a.52.52,0,1,1-1,0c0-.87,0-1.73,0-2.59V46.3H31.37v2.92c0,.39-.2.59-.54.59s-.5-.21-.5-.59c0-1,0-1.92,0-2.93H28.19c-.05,0-.1.05-.14.09a6.56,6.56,0,0,1-.62.67,12.32,12.32,0,0,1-5.7,2.71,7.27,7.27,0,0,1-6.05-1.56,3.64,3.64,0,0,1-1.39-3c0-2.11,0-4.23,0-6.35,0-.59-.08-1.19-.06-1.78a6.86,6.86,0,0,1,4-6.16,14,14,0,0,1,5.29-1.4c.54,0,1.09-.07,1.72-.11-.17-.62-.3-1.22-.49-1.81a19.36,19.36,0,0,0-2.49-4.85c-.16-.24-.34-.48-.48-.73a1.86,1.86,0,0,1,.55-2.61,6.76,6.76,0,0,1,2.83-1.12c.92-.18,1.85-.31,2.79-.43s1.46-.54,1.55-1.61a4.71,4.71,0,0,0,0-.53,1.13,1.13,0,0,1,.81-1.24,10.45,10.45,0,0,1,1.09-.32Zm-4.5,31.09.31,0h8.49c.23,0,.31-.09.39-.29.92-2.21,1.85-4.41,2.76-6.62a.69.69,0,0,0,0-.51c-.35-.7-.72-1.38-1.09-2.07a10.14,10.14,0,0,1-.68-8.39,23.1,23.1,0,0,1,2.61-5.15,6.13,6.13,0,0,0,.46-.78.85.85,0,0,0-.25-1.1,5.09,5.09,0,0,0-1.2-.68,13.9,13.9,0,0,0-3.78-.78,2.49,2.49,0,0,1-2.56-2.36,3.9,3.9,0,0,1-.06-.76c0-.29-.1-.42-.37-.42H30.94c-.27,0-.39.13-.37.41a3.81,3.81,0,0,1,0,.59,2.43,2.43,0,0,1-2.3,2.49c-.74.12-1.5.2-2.24.33a8.24,8.24,0,0,0-2.81.89c-.75.45-.84.9-.37,1.62l.41.6a22,22,0,0,1,2.32,4.36,10.41,10.41,0,0,1-.12,8.5c-.5,1.06-1.09,2.08-1.63,3.12A12,12,0,0,0,22.7,41c.5-.26.93-.45,1.34-.68A14.56,14.56,0,0,0,27.09,38c.29-.28.59-.33.79-.08a1,1,0,0,1,.18.58c0,2.1,0,4.21,0,6.31ZM17.85,32.32c-.29.23-.49.42-.71.58a1,1,0,0,0-.42.93c0,.94,0,1.88,0,2.82a.46.46,0,0,1-.47.53.49.49,0,0,1-.55-.5,4.51,4.51,0,0,1,0-.52v-.94H15.6a6.19,6.19,0,0,0-.16,3.49,2.77,2.77,0,0,0,1,1.4,6.11,6.11,0,0,1,2.29-2,12.08,12.08,0,0,1,4.15-1.24c.18,0,.43-.08.5-.21a14.42,14.42,0,0,0,1.71-4,7.07,7.07,0,0,0,.18-2.21l-1.76.08v1.21c0,.38-.2.6-.53.6s-.51-.22-.51-.61,0-.69,0-1.07l-1.27.25v1.26c0,.64,0,1.28,0,1.92,0,.39-.18.6-.51.61s-.52-.21-.53-.59V31.18c-.37.15-.69.29-1,.4a.4.4,0,0,0-.31.46c0,.36,0,.72,0,1.08s-.18.58-.5.59-.53-.2-.54-.58S17.85,32.65,17.85,32.32Zm-2.51,8.22v.4c0,1.43,0,2.86,0,4.29a2.46,2.46,0,0,0,.86,2,5.88,5.88,0,0,0,1.33.93,7.07,7.07,0,0,0,5.75.11.39.39,0,0,0,.29-.43c0-1.93,0-3.86,0-5.79,0-.08,0-.17,0-.27-.39.14-.73.28-1.09.37a.29.29,0,0,0-.24.35c0,.32,0,.65,0,1s-.2.6-.53.6-.5-.21-.51-.61v-1H19.86v.41c0,.83,0,1.67,0,2.51a.64.64,0,0,1-.28.46.61.61,0,0,1-.54,0,.75.75,0,0,1-.2-.51c0-.91,0-1.82,0-2.73,0-.1-.06-.27-.13-.3-.36-.13-.74-.21-1.16-.33,0,.31,0,.59,0,.87a.48.48,0,0,1-.52.52.49.49,0,0,1-.51-.54c0-.38,0-.77,0-1.15a.54.54,0,0,0-.13-.33C16,41.06,15.71,40.82,15.34,40.54ZM38.7,44.22l.06,0,7.7-11.64-.72-.41-.19.31a.49.49,0,0,1-.68.21.48.48,0,0,1-.22-.71c.27-.52.56-1,.85-1.56a.49.49,0,0,1,.7-.23.5.5,0,0,1,.22.71c-.06.11-.12.22-.18.35l.78.45c.16-.27.32-.5.44-.75a1.45,1.45,0,0,0-1.35-2.07,1.43,1.43,0,0,0-1.36,1Q42,36.47,39.19,43C39,43.43,38.86,43.82,38.7,44.22ZM24.6,47.6l.09.07,2.07-1.41a.58.58,0,0,0,.27-.54c0-1.94,0-3.88,0-5.82,0-.11,0-.22,0-.32-.78.53-1.55,1.06-2.3,1.59a.47.47,0,0,0-.11.3V47.6Zm-7.21-6.88a6.64,6.64,0,0,0,4,.62c.08,0,.18-.14.21-.23.1-.32.16-.65.27-1,.27-.71.55-1.42.82-2.12C20.94,38.09,18,39.31,17.39,40.72Zm22,4.52c.73,0,1.37,0,2,0a.39.39,0,0,0,.4-.43c0-.22,0-.45,0-.66-.06-.7-.13-1.39-.19-2.09h-.1Z"/></g></svg>