<svg xmlns="http://www.w3.org/2000/svg" xmlns:xlink="http://www.w3.org/1999/xlink" viewBox="0 0 64 64"><defs><style>.cls-1{fill:none;}.cls-2{clip-path:url(#clip-path);}.cls-3{fill:#047857;}</style><clipPath id="clip-path"><rect class="cls-1" x="-833.14" y="-886.59" width="921.26" height="574.43" transform="translate(-745.03 -1198.75) rotate(180)"/></clipPath></defs><g id="Calque_35" data-name="Calque 35"><path class="cls-3" d="M32,48.11H15.12a2.38,2.38,0,0,1-.75-.1,1.08,1.08,0,0,1-.7-1.43c1-3,2-5.93,3.09-8.87a1.49,1.49,0,0,0,0-1.42,1.38,1.38,0,0,1-.1-.71V18.06a2,2,0,0,1,2.16-2.17H45.17A2,2,0,0,1,47.32,18q0,8.78,0,17.55A5.32,5.32,0,0,1,47,36.8c0,.09-.08.19-.05.27.35.94.74,1.86,1.07,2.81.77,2.18,1.52,4.38,2.27,6.57a1.15,1.15,0,0,1-1,1.63,3.63,3.63,0,0,1-.57,0ZM49.33,47c0-.13,0-.21-.07-.3-1-2.85-2-5.7-2.94-8.55a.53.53,0,0,0-.61-.4q-13.68,0-27.35,0a.59.59,0,0,0-.67.49c-1,2.83-2,5.65-2.92,8.48a1.86,1.86,0,0,0-.08.32l.36,0H26.3a.34.34,0,0,0,.4-.29c.21-.8.45-1.59.69-2.38.17-.57.36-.7.94-.71h7.34c.6,0,.78.14,1,.73.23.76.46,1.53.67,2.31.07.27.2.35.48.35H48.87A4.16,4.16,0,0,0,49.33,47ZM32,17H19c-.89,0-1.2.31-1.2,1.2V35.44c0,.91.31,1.22,1.21,1.22H45c.93,0,1.23-.31,1.23-1.24V20.89c0-1,0-1.94,0-2.91a.92.92,0,0,0-1-1H32ZM27.73,47h8.56c-.2-.67-.4-1.31-.57-2-.07-.24-.17-.33-.42-.32-.65,0-1.3,0-1.95,0H28.73a.48.48,0,0,0-.37.19C28.13,45.61,27.94,46.29,27.73,47Z"/><path class="cls-3" d="M32.05,41H44.48a.5.5,0,0,1,.49.53.49.49,0,0,1-.49.53,1.51,1.51,0,0,1-.3,0H19.93a1.93,1.93,0,0,1-.34,0,.53.53,0,0,1,0-1.06H32.05Z"/><path class="cls-3" d="M32.09,38.81H43.41c.14,0,.33,0,.41,0s.35.35.34.53-.23.35-.39.48-.27,0-.41,0H20.48a.54.54,0,0,1-.56-.55.52.52,0,0,1,.58-.52c.73,0,1.46,0,2.18,0Z"/><path class="cls-3" d="M32.05,18.67c3.79,0,7.58,0,11.36,0a1.77,1.77,0,0,1,1.92,1.94c0,4.16,0,8.31,0,12.47a1.67,1.67,0,0,1-1.9,1.9H20.58a1.66,1.66,0,0,1-1.88-1.88V20.5a1.63,1.63,0,0,1,1.84-1.83Zm0,1.07H20.59c-.69,0-.82.13-.82.83v12.5c0,.67.15.82.81.82H43.44c.65,0,.81-.16.81-.82V20.56c0-.68-.14-.82-.83-.82Z"/></g></svg>