<svg xmlns="http://www.w3.org/2000/svg" xmlns:xlink="http://www.w3.org/1999/xlink" viewBox="0 0 64 64"><defs><style>.cls-1{fill:none;}.cls-2{clip-path:url(#clip-path);}.cls-3{fill:#047857;}</style><clipPath id="clip-path"><rect class="cls-1" x="-833.14" y="-886.59" width="921.26" height="574.43" transform="translate(-745.03 -1198.75) rotate(180)"/></clipPath></defs><g id="Calque_35" data-name="Calque 35"><path class="cls-3" d="M14.38,31.81V28H17a.58.58,0,0,0,.65-.49A10.45,10.45,0,0,1,19,24.28a.57.57,0,0,0-.11-.78L17,21.64l2.76-2.74,1.77,1.79c.38.38.53.4,1,.12a10.1,10.1,0,0,1,3-1.23c.45-.11.56-.25.56-.71,0-.86,0-1.72,0-2.61h3.87v.46c0,.73,0,1.46,0,2.19a.6.6,0,0,0,.53.66,10,10,0,0,1,3.11,1.29.6.6,0,0,0,.82-.09c.53-.55,1.08-1.09,1.62-1.63l.25-.23L39,21.65l-1.15,1.13c-.24.24-.47.48-.72.72a.59.59,0,0,0-.09.81c.35.68.66,1.37,1,2.07a.46.46,0,0,1,0,.38c-.74.82-1.5,1.62-2.32,2.48a7.65,7.65,0,0,0-2.92-5.38,7.33,7.33,0,0,0-5.89-1.54,7.57,7.57,0,0,0-6.46,7.05A7.65,7.65,0,0,0,26,37.27c0,.06-.07.13-.11.18-.62.65-1.24,1.3-1.84,2-.14.14-.24.2-.43.09-.38-.22-.78-.4-1.15-.62a.59.59,0,0,0-.82.1l-1.84,1.85L17,38.12l1.82-1.82c.34-.34.36-.49.12-.89a10.52,10.52,0,0,1-1.26-3c-.11-.46-.24-.55-.71-.56Z"/><path class="cls-3" d="M42.15,47.69c0-.37,0-.72,0-1.07A.57.57,0,0,0,41.7,46c-.52-.19-1-.41-1.54-.64a.56.56,0,0,0-.72.11l-.74.74-1-1.1.71-.68a.59.59,0,0,0,.11-.76c-.23-.5-.45-1-.63-1.51a.59.59,0,0,0-.61-.46H36.18V40.22h1a.61.61,0,0,0,.68-.5,11.23,11.23,0,0,1,.6-1.44.59.59,0,0,0-.12-.81c-.25-.23-.49-.47-.75-.7l1.13-1.06.69.72a.58.58,0,0,0,.78.11c.49-.23,1-.43,1.51-.62a.56.56,0,0,0,.44-.58V34.25h1.5c0,.34,0,.66,0,1a.62.62,0,0,0,.52.7,9,9,0,0,1,1.4.59.62.62,0,0,0,.85-.13c.22-.24.46-.47.67-.68l1.06,1.09-.71.67a.59.59,0,0,0-.12.78c.23.49.44,1,.62,1.5a.58.58,0,0,0,.61.46h1.08V41.7h-1c-.48,0-.57.1-.73.54a14.47,14.47,0,0,1-.59,1.41.6.6,0,0,0,.12.81l.72.69-1.08,1.07c-.21-.22-.46-.46-.7-.72a.6.6,0,0,0-.78-.12c-.49.23-1,.44-1.51.63a.58.58,0,0,0-.45.61c0,.35,0,.7,0,1.07Zm.75-10.9A4.18,4.18,0,1,0,47.08,41,4.2,4.2,0,0,0,42.9,36.79Z"/><path class="cls-3" d="M28.38,36.23l3.11,2.92-.82.87a.35.35,0,0,1-.25.1,4.76,4.76,0,0,0-3.05,1.1,7.34,7.34,0,0,0-2.89,4,3.78,3.78,0,0,0-.11,1.11c0,.66-.49.92-.91,1.2a1,1,0,0,1-1.25-.13c-.52-.46-1-.93-1.51-1.42a1.13,1.13,0,0,1-.05-1.53,5,5,0,0,1,.54-.58.43.43,0,0,1,.26-.11,4.68,4.68,0,0,0,3-1.08,7.4,7.4,0,0,0,2.86-3.89,9.67,9.67,0,0,0,.16-1.33,1.09,1.09,0,0,1,.19-.5A9.76,9.76,0,0,1,28.38,36.23Z"/><path class="cls-3" d="M32.62,35.7l-.87-.81L32,34.6c2.83-3,5.66-6.05,8.51-9.06a3,3,0,0,0,.88-1.62.8.8,0,0,1,.32-.48c.82-.57,1.65-1.11,2.5-1.67l.69.64-1.61,2.77a.45.45,0,0,1-.3.17,3.06,3.06,0,0,0-1.68,1c-2.74,3-5.5,5.88-8.25,8.81C32.94,35.37,32.79,35.53,32.62,35.7Z"/><path class="cls-3" d="M25,27.92c.64.6,1.24,1.14,1.82,1.71a.82.82,0,0,0,1,.22c.5-.18,1-.34,1.52-.48a.67.67,0,0,0,.51-.55c.13-.56.25-1.12.4-1.66a.72.72,0,0,0-.25-.81c-.57-.51-1.12-1-1.68-1.56l-.14-.15,0-.12a10.19,10.19,0,0,1,1.25.21,3.24,3.24,0,0,1,2.13,3.82.88.88,0,0,0,.31,1c.62.56,1.22,1.14,1.86,1.73L32,33.09c-.61-.57-1.23-1.12-1.81-1.7a1,1,0,0,0-1.07-.27A3.21,3.21,0,0,1,25,27.92Z"/><path class="cls-3" d="M34.05,38.67c-.16.19-.28.42-.47.51s-.4,0-.6,0-.15-.12-.22-.19l-4.3-4c-.24-.22-.42-.45-.26-.79A.62.62,0,0,1,29.28,34l3.88,3.63c.21.2.43.39.63.61A2.59,2.59,0,0,1,34.05,38.67Z"/><path class="cls-3" d="M26.39,38.36c-.37,1.76-2.42,4-4,4.26Z"/><path class="cls-3" d="M29.44,41.33l-4,4.22C25.73,43.91,28,41.49,29.44,41.33Z"/></g></svg>