<svg xmlns="http://www.w3.org/2000/svg" xmlns:xlink="http://www.w3.org/1999/xlink" viewBox="0 0 64 64"><defs><style>.cls-1{fill:none;}.cls-2{clip-path:url(#clip-path);}.cls-3{fill:#047857;}</style><clipPath id="clip-path"><rect class="cls-1" x="-833.14" y="-886.59" width="921.26" height="574.43" transform="translate(-745.03 -1198.75) rotate(180)"/></clipPath></defs><g id="Calque_35" data-name="Calque 35"><path class="cls-3" d="M19.05,38.39c-.47,2.26-1,4.57-1.44,6.89-.18.82-.33,1.65-.55,2.46a3.82,3.82,0,0,1-.5,1.13,1.5,1.5,0,0,1-1.65.71,1.43,1.43,0,0,1-1.05-1.34,5,5,0,0,1,.12-1.6q1.45-5.78,3-11.53a6,6,0,0,0-.2-3.87,11.11,11.11,0,0,1-.85-2.92,5.91,5.91,0,0,1,.9-3.9A3.65,3.65,0,0,1,21.47,23c.23.11.31,0,.43-.13a14.37,14.37,0,0,1,5.55-3.94c4.85-1.87,9.34-1.05,13.52,1.9l.24.18.11,0c0-.21.09-.41.12-.61a4.49,4.49,0,0,1,1-2,1,1,0,0,1,1.79.18,12.64,12.64,0,0,1,.65,1.91,84.66,84.66,0,0,1,2.26,10.07,19.43,19.43,0,0,1,.33,2.12,9.47,9.47,0,0,1-.13,1.49,1.79,1.79,0,0,0,0,.51A55.63,55.63,0,0,0,49.39,43a16.65,16.65,0,0,1,.7,2,2.35,2.35,0,0,1-.82,2.41,1.64,1.64,0,0,1-2.67-.54,5.78,5.78,0,0,1-.45-2.24c-.16-2.2-.31-4.39-.48-6.59a8.24,8.24,0,0,0-.15-.83c-2.52,5.64-6.59,9.18-12.91,9.29C26.51,46.57,21.79,44,19.05,38.39Zm3.33-14.88a2.89,2.89,0,0,1,.79,1.81,10.46,10.46,0,0,1-.12,2.24,8.62,8.62,0,0,1-1.77,3.63c-.52.69-1.05,1.38-1.5,2.11a2.11,2.11,0,0,0-.25,1.11,4.77,4.77,0,0,0,.24,1.17A13,13,0,0,0,34,45.1,12.88,12.88,0,0,0,45.13,36a1.16,1.16,0,0,0-.36-1.38,3.86,3.86,0,0,1-1.13-1.79A55.58,55.58,0,0,1,41.3,22.43a.74.74,0,0,0-.22-.44,13.59,13.59,0,0,0-7.89-3.21,12.52,12.52,0,0,0-6.83,1.54A13.34,13.34,0,0,0,22.38,23.51Zm0,2.75a4,4,0,0,0,0-.49,2.22,2.22,0,0,0-1.24-2,2.52,2.52,0,0,0-2.68.18A3.41,3.41,0,0,0,17,26.63,11.5,11.5,0,0,0,17.86,31a5.28,5.28,0,0,1,.23,3.24c-1,3.92-2,7.85-3,11.78a14.4,14.4,0,0,0-.29,1.86c0,.33.16.5.49.41a1,1,0,0,0,.56-.38,2.64,2.64,0,0,0,.25-.78c.45-2.29.9-4.59,1.33-6.88.35-1.81.71-3.62,1-5.45a6.08,6.08,0,0,1,1.43-3.18,14.82,14.82,0,0,0,1.05-1.32A7.13,7.13,0,0,0,22.36,26.26Zm24.35,6.82c0-.23,0-.42-.07-.6A102,102,0,0,0,44,20.38c-.13-.43-.26-.87-.42-1.28s-.33-.33-.54-.08a3.71,3.71,0,0,0-.28.41,4.82,4.82,0,0,0-.59,3.26,55,55,0,0,0,2.19,9.73A3.43,3.43,0,0,0,45,33.7,3.54,3.54,0,0,1,46,35.32a43,43,0,0,1,1.24,6.55c.1,1,.12,2.06.24,3.08a3,3,0,0,0,.4,1.22.71.71,0,0,0,1.29-.07,1.38,1.38,0,0,0,.19-.92,12.58,12.58,0,0,0-.63-1.88,51.26,51.26,0,0,1-2.1-7.89,2.86,2.86,0,0,1,.06-1.85A1.35,1.35,0,0,0,46.71,33.08Z"/><path class="cls-3" d="M25.4,16.35c0-.5.05-1,.08-1.5,0-.23,0-.49.35-.48a.44.44,0,0,1,.45.53c-.05,1-.1,2-.16,3,0,.25-.14.44-.42.42a.41.41,0,0,1-.38-.48C25.34,17.35,25.37,16.85,25.4,16.35Z"/><path class="cls-3" d="M22.65,15.45c.06.07.24.17.28.32.26.88.49,1.77.72,2.66.07.24,0,.47-.27.53s-.4-.1-.47-.36c-.24-.85-.5-1.69-.74-2.53C22.06,15.69,22.21,15.45,22.65,15.45Z"/><path class="cls-3" d="M20,17.55a1.49,1.49,0,0,1,.4.3A6,6,0,0,0,22,19.5c.23.16.32.37.15.6a.39.39,0,0,1-.62.07c-.64-.62-1.27-1.25-1.88-1.9a.54.54,0,0,1,0-.44C19.67,17.73,19.82,17.66,20,17.55Z"/><path class="cls-3" d="M23.83,32a8.49,8.49,0,0,1,3.78-6.77,6.3,6.3,0,0,1,3.62-1.44A8.89,8.89,0,0,1,38,26.38a7.18,7.18,0,0,1,1.77,7.91,8.67,8.67,0,0,1-8.29,5.77A7.92,7.92,0,0,1,23.83,32Zm7.78-7.41a8.38,8.38,0,0,0-1.75.38C27,26.3,25,28.39,24.69,31.68c-.46,4.6,3.6,7.67,7.33,7.52a7.5,7.5,0,0,0,5.63-2.91c2.14-2.6,2.62-6.22-.09-9.11A8.62,8.62,0,0,0,31.61,24.63Z"/><path class="cls-3" d="M31.76,29.08a1,1,0,0,1-.71,1.05,1.11,1.11,0,0,1-1.2-.41,1.15,1.15,0,0,1,0-1.28c0-.06.11-.14.16-.14a4.56,4.56,0,0,1,1.28,0A.74.74,0,0,1,31.76,29.08Z"/><path class="cls-3" d="M29.58,35.39c-.19-.11-.45-.18-.57-.35a3.79,3.79,0,0,1-.47-1,.44.44,0,0,1,.16-.37,1,1,0,0,1,.49,0c.1,0,.21.11.28.08a.67.67,0,0,1,.79.27.83.83,0,0,1,.09.89A.87.87,0,0,1,29.58,35.39Z"/><path class="cls-3" d="M35.22,30.57c0,.46-.17.72-.47.73a.78.78,0,0,1-.72-.76c0-.15-.13-.29-.17-.44s-.12-.39,0-.5a.59.59,0,0,1,.46-.21A1.14,1.14,0,0,1,35.22,30.57Z"/><path class="cls-3" d="M35.1,35.65a.82.82,0,0,1-.93.77.36.36,0,0,1-.27-.57.37.37,0,0,0,0-.45c-.14-.28.09-.55.41-.56A.74.74,0,0,1,35.1,35.65Z"/><path class="cls-3" d="M32.65,27c.25,0,.44.13.45.43s-.33.64-.61.57a.79.79,0,0,1-.44-.42C32,27.36,32.38,27,32.65,27Z"/><path class="cls-3" d="M28,31.28a.45.45,0,0,1-.45.41.56.56,0,0,1-.55-.55.43.43,0,0,1,.38-.51C27.6,30.6,28,31,28,31.28Z"/><path class="cls-3" d="M33.65,34c-.22,0-.46,0-.48-.38s.2-.47.55-.47.51.07.51.4S34,34,33.65,34Z"/></g></svg>