<svg xmlns="http://www.w3.org/2000/svg" xmlns:xlink="http://www.w3.org/1999/xlink" viewBox="0 0 64 64"><defs><style>.cls-1{fill:none;}.cls-2{clip-path:url(#clip-path);}.cls-3{fill:#047857;}</style><clipPath id="clip-path"><rect class="cls-1" x="-833.14" y="-886.59" width="921.26" height="574.43" transform="translate(-745.03 -1198.75) rotate(180)"/></clipPath></defs><g id="Calque_35" data-name="Calque 35"><path class="cls-3" d="M48.14,49.72H15.88a.6.6,0,0,0-.13-.09,1.84,1.84,0,0,1-.25-2.82,1.71,1.71,0,0,1,.5-.21,1.91,1.91,0,0,1,.33-.06v-18A1.26,1.26,0,0,1,15,27V26c0-1.07.43-1.5,1.49-1.5h5.22V18.21H21A1.19,1.19,0,0,1,19.83,17c0-.47,0-.95,0-1.42a1.18,1.18,0,0,1,1.27-1.28h9.52c.45,0,.7.19.7.53s-.25.51-.72.51H21.26c-.3,0-.42.07-.4.39s0,.64,0,1c0,.5,0,.5.51.5H42.87c.23,0,.3-.09.3-.31s0-.71,0-1.07,0-.47-.48-.47H33.34c-.4,0-.64-.21-.63-.53s.24-.51.61-.51H43a1.18,1.18,0,0,1,1.22,1.23c0,.48,0,1,0,1.45A1.19,1.19,0,0,1,43,18.21h-.65v6.33H47.7A1.21,1.21,0,0,1,49,25.74q0,.78,0,1.56a1.19,1.19,0,0,1-1,1.15c-.12,0-.24,0-.38.05V40c0,.13,0,.29,0,.37s-.28.37-.45.4-.36-.14-.5-.27a.7.7,0,0,1-.07-.4V36.84H42.32v9.7h4.31V43.19c0-.18,0-.35,0-.52a.52.52,0,0,1,.55-.51.5.5,0,0,1,.48.53c0,.19,0,.39,0,.59v3.26l.36.05a1,1,0,0,1,.89.73C49.15,48.37,49.17,49.26,48.14,49.72Zm-6.9-31.48H22.8v28.3h3.41c0-.1,0-.2,0-.29V37.12c0-.2,0-.3-.27-.34A1.15,1.15,0,0,1,25,35.62V35a1.22,1.22,0,0,1,1.39-1.38H37.79A1.18,1.18,0,0,1,39,34.76a7.85,7.85,0,0,1,0,1,1.12,1.12,0,0,1-.88,1c-.28.05-.34.17-.34.43q0,4.5,0,9v.34h3.45ZM17.43,36.83v9.7H21.7v-9.7Zm9.87,0a1.83,1.83,0,0,0,0,.21q0,4.62,0,9.24c0,.21.07.28.28.28h3.7l.22,0v-9.7Zm5.26,0v9.7h4.17v-9.7ZM32,48.68H47.66c.09,0,.26,0,.27-.08a3.7,3.7,0,0,0,0-.88c0-.06-.3-.11-.46-.11H16.34c-.2,0-.31.08-.3.29s0,.2,0,.31c0,.48,0,.48.47.48ZM21.71,28.49H17.43v7.27h4.28Zm24.9,7.26V28.5h-4.3v7.25ZM32,35.78h5.36c.74,0,.6,0,.64-.64,0-.34-.09-.45-.45-.45H26.7c-.72,0-.61-.08-.65.65,0,.37.13.44.46.43ZM21.71,25.61l-.16,0H16.34c-.23,0-.3.1-.3.32,0,.38,0,.76,0,1.14s.11.4.42.4h5.25Zm20.6,1.78.09,0h5.32c.2,0,.27-.09.26-.27,0-.39,0-.78,0-1.17s-.11-.42-.42-.41c-1.64,0-3.29,0-4.94,0l-.32,0Z"/><path class="cls-3" d="M33.89,27.81V29a1,1,0,0,1-1,1c-.58,0-1.15,0-1.73,0a1,1,0,0,1-1-1V27.81H29c-.79,0-1.15-.36-1.15-1.14,0-.51,0-1,0-1.52A1,1,0,0,1,29,24.05h1.17v-1.2a1,1,0,0,1,1-1H32.9a.94.94,0,0,1,1,1v1.24h1.17a1,1,0,0,1,1.09,1.1c0,.53,0,1.06,0,1.59a1,1,0,0,1-1.08,1.07Zm-2.71-4.95V24a1,1,0,0,1-1.05,1.06c-.39,0-.78,0-1.19,0v1.68H30.1a1,1,0,0,1,1.08,1.1V29h1.67V28c0-.87.34-1.21,1.21-1.21h1V25.09c-.4,0-.77,0-1.14,0A1,1,0,0,1,32.85,24V22.86Z"/><path class="cls-3" d="M29.45,41.63V40.7a.52.52,0,1,1,1,0c0,.64,0,1.29,0,1.93a.52.52,0,1,1-1,0Z"/><path class="cls-3" d="M34.57,41.69c0,.32,0,.64,0,1a.52.52,0,1,1-1,0c0-.65,0-1.31,0-2a.52.52,0,1,1,1,0C34.58,41,34.57,41.35,34.57,41.69Z"/></g></svg>