<svg xmlns="http://www.w3.org/2000/svg" xmlns:xlink="http://www.w3.org/1999/xlink" viewBox="0 0 64 64"><defs><style>.cls-1{fill:none;}.cls-2{clip-path:url(#clip-path);}.cls-3{fill:#047857;}</style><clipPath id="clip-path"><rect class="cls-1" x="-833.14" y="-886.59" width="921.26" height="574.43" transform="translate(-745.03 -1198.75) rotate(180)"/></clipPath></defs><g id="Calque_35" data-name="Calque 35"><path class="cls-3" d="M23.89,49.45a2.34,2.34,0,0,1-1.74-1.28,3.35,3.35,0,0,1-.29-1.24q0-14.94,0-29.86a2.39,2.39,0,0,1,2.56-2.52c5.05,0,10.1,0,15.14,0a2.4,2.4,0,0,1,2.6,2.59V46.86a2.43,2.43,0,0,1-1.37,2.36,5.16,5.16,0,0,1-.66.23ZM23.52,18.3V45.07h17V18.3Zm9.65,28.8A1.17,1.17,0,1,0,32,48.28,1.18,1.18,0,0,0,33.17,47.1ZM32,16.81h2.38c.2,0,.41,0,.41-.28s-.2-.28-.41-.28h-4.7c-.21,0-.41,0-.41.28s.21.28.41.28Z"/></g></svg>