<svg xmlns="http://www.w3.org/2000/svg" xmlns:xlink="http://www.w3.org/1999/xlink" viewBox="0 0 64 64"><defs><style>.cls-1{fill:none;}.cls-2{clip-path:url(#clip-path);}.cls-3{fill:#047857;}</style><clipPath id="clip-path"><rect class="cls-1" x="-833.14" y="-886.59" width="921.26" height="574.43" transform="translate(-745.03 -1198.75) rotate(180)"/></clipPath></defs><g id="Calque_35" data-name="Calque 35"><path class="cls-3" d="M14.72,33V31c0-.1,0-.2.06-.3a16.35,16.35,0,0,1,2-6.8A17,17,0,0,1,29,15c.66-.12,1.33-.18,2-.27h2l.73.09A17.31,17.31,0,0,1,49.25,31.28a16.09,16.09,0,0,1-2,8.83,16.94,16.94,0,0,1-14.52,9.14,16,16,0,0,1-8.82-2A17,17,0,0,1,15,35C14.87,34.35,14.81,33.68,14.72,33ZM32.61,22.63h0c0,.87,0,1.73,0,2.6a.54.54,0,0,0,.23.48q2.61,2.07,5.21,4.17a.49.49,0,0,0,.55.08c1.75-.59,3.51-1.18,5.27-1.75a.52.52,0,0,0,.4-.46c.34-1.5.7-3,1-4.49a.68.68,0,0,0-.09-.46,16,16,0,0,0-6.39-5.39.64.64,0,0,0-.43,0l-5.54,2.2a.35.35,0,0,0-.25.4C32.62,20.88,32.61,21.75,32.61,22.63Zm-1.22,0c0-.88,0-1.77,0-2.66a.31.31,0,0,0-.23-.35L25.55,17.4a.52.52,0,0,0-.37,0,16.11,16.11,0,0,0-6.44,5.44.53.53,0,0,0-.06.37c.35,1.54.72,3.08,1.08,4.63a.38.38,0,0,0,.31.33L25.47,30a.49.49,0,0,0,.41-.07c1.78-1.4,3.54-2.81,5.3-4.23a.6.6,0,0,0,.2-.41C31.4,24.38,31.39,23.5,31.39,22.62ZM48,33.54a1.94,1.94,0,0,0-.16-.24l-3.17-3.81a.32.32,0,0,0-.42-.13c-1.78.61-3.58,1.19-5.36,1.8a.5.5,0,0,0-.29.3c-.55,2.12-1.07,4.25-1.59,6.37a.46.46,0,0,0,.08.36c.84,1.13,1.68,2.25,2.54,3.36a.48.48,0,0,0,.33.15l5.25-.84a.55.55,0,0,0,.36-.25c.53-1,1.09-2.06,1.54-3.13A13.72,13.72,0,0,0,48,33.54ZM16,33.56a.43.43,0,0,1,0,.12,16.28,16.28,0,0,0,2.36,6.86.72.72,0,0,0,.55.36c1.69.26,3.38.52,5.06.8a.4.4,0,0,0,.45-.18c.82-1.1,1.65-2.19,2.47-3.3a.63.63,0,0,0,.08-.45q-.77-3.14-1.57-6.27a.58.58,0,0,0-.29-.34l-5.37-1.8a.31.31,0,0,0-.4.1c-1.07,1.3-2.15,2.59-3.23,3.89A1.35,1.35,0,0,0,16,33.56ZM32,38.77H28.28a.66.66,0,0,0-.44.21c-.83,1.07-1.63,2.16-2.44,3.23a.32.32,0,0,0,0,.44c1.05,1.63,2.08,3.26,3.13,4.88a.63.63,0,0,0,.38.26,15.59,15.59,0,0,0,6.73-.1.6.6,0,0,0,.34-.27c.9-1.57,1.79-3.14,2.7-4.71a.38.38,0,0,0,0-.5C37.81,41.16,37,40.09,36.2,39a.54.54,0,0,0-.5-.25Z"/></g></svg>