<svg xmlns="http://www.w3.org/2000/svg" xmlns:xlink="http://www.w3.org/1999/xlink" viewBox="0 0 64 64"><defs><style>.cls-1{fill:none;}.cls-2{clip-path:url(#clip-path);}.cls-3{fill:#1f1f1d;}.cls-4{fill:#065f46;}.cls-5{fill:#6ee7b7;}.cls-6{fill:#d1fae5;}.cls-7{fill:#ecfdf5;stroke:#1d1d1b;stroke-miterlimit:10;stroke-width:0.5px;}</style><clipPath id="clip-path"><rect class="cls-1" x="-833.14" y="-886.59" width="921.26" height="574.43" transform="translate(-745.03 -1198.75) rotate(180)"/></clipPath></defs><g id="Calque_35" data-name="Calque 35"><path class="cls-3" d="M42.12,43.88l-.34,0H17.28a2.38,2.38,0,0,1-2.48-1.81,2.72,2.72,0,0,1-.06-.7q0-11.18,0-22.36a2.35,2.35,0,0,1,2.51-2.51H46.74a2.35,2.35,0,0,1,2.52,2.53q0,11.16,0,22.33a2.35,2.35,0,0,1-2.53,2.52c-.56,0-1.12,0-1.67,0a17.75,17.75,0,0,1-1.48-2.34l2.65,0A.59.59,0,0,0,46.9,41a2.43,2.43,0,0,0,0-.38V23.81c0-.12,0-.26-.06-.37,0-1.22,0-2.44,0-3.66,0-.74-.14-.88-.87-.88H18c-.74,0-.88.14-.88.87v21.1c0,.44.21.65.64.65s1.16,0,1.74,0l5.27,0H40.68c.13.19.27.38.38.58A17,17,0,0,1,42.12,43.88Z"/><path class="cls-4" d="M42.12,43.88a17,17,0,0,0-1.06-1.78c-.11-.2-.25-.39-.38-.58l-.09-.18L35.4,33.06a7.59,7.59,0,0,1-.81-1.37c-.23-.67-.4-1.36-.6-2a.55.55,0,0,1,.23-.67A.58.58,0,0,1,35,29c.15.13.3.26.44.4a8.07,8.07,0,0,1,1.33,1.28c1.88,3,3.74,6,5.62,8.94a19.89,19.89,0,0,0,1.23,1.9,17.75,17.75,0,0,0,1.48,2.34,13.77,13.77,0,0,0,1,1.7,1.26,1.26,0,0,1,.22.86,1.21,1.21,0,0,1-.9,1,1.19,1.19,0,0,1-1.29-.54L42.38,44.2C42.31,44.09,42.26,44,42.12,43.88Z"/><path class="cls-5" d="M43.58,41.55a19.89,19.89,0,0,1-1.23-1.9c-1.88-3-3.74-6-5.62-8.94a8.07,8.07,0,0,0-1.33-1.28c-.14-.14-.29-.27-.44-.4a.58.58,0,0,0-.74-.05.55.55,0,0,0-.23.67c.2.68.37,1.37.6,2a7.59,7.59,0,0,0,.81,1.37l5.19,8.28.09.18H24.77l-5.27,0a17.9,17.9,0,0,1,.14-2.31,19.14,19.14,0,0,1,1-4.23h1.22a.54.54,0,0,0,.59-.6c0-.57,0-1.14,0-1.71A.57.57,0,0,0,22,32a.53.53,0,0,1,.1-.32,18.76,18.76,0,0,1,2-2.83c.23-.26.39-.61.75-.74,0,.3,0,.6,0,.9a.52.52,0,0,0,.56.56c.6,0,1.19,0,1.78,0a.53.53,0,0,0,.59-.58q0-.89,0-1.77a.54.54,0,0,0-.59-.59h-.8a.21.21,0,0,1,.09-.18,19.86,19.86,0,0,1,6.36-3.56,18.68,18.68,0,0,1,4.5-.94,20.9,20.9,0,0,1,4.61.1,19.88,19.88,0,0,1,4.89,1.37c.1.11.06.25.06.37V40.59a2.43,2.43,0,0,1,0,.38.59.59,0,0,1-.67.56Z"/><path class="cls-6" d="M20.63,35a19.14,19.14,0,0,0-1,4.23,17.9,17.9,0,0,0-.14,2.31c-.58,0-1.16,0-1.74,0s-.63-.21-.64-.65V19.77c0-.73.14-.87.88-.87H46c.73,0,.87.14.87.88,0,1.22,0,2.44,0,3.66A19.88,19.88,0,0,0,42,22.07a20.9,20.9,0,0,0-4.61-.1,18.68,18.68,0,0,0-4.5.94,19.86,19.86,0,0,0-6.36,3.56.21.21,0,0,0-.09.18h-1a.54.54,0,0,0-.57.57c0,.3,0,.6,0,.91-.36.13-.52.48-.75.74a18.76,18.76,0,0,0-2,2.83A.53.53,0,0,0,22,32H20.11a.53.53,0,0,0-.6.52c0,.63,0,1.25,0,1.88A.53.53,0,0,0,20,35ZM22.44,22.8v-.87c0-.44-.2-.65-.63-.65H20.14c-.43,0-.63.21-.63.65s0,1.09,0,1.64a.63.63,0,0,0,.68.7c.54,0,1.09,0,1.63,0a.56.56,0,0,0,.62-.63Zm5.37,0c0-.28,0-.56,0-.83,0-.44-.2-.65-.63-.65H25.51a.55.55,0,0,0-.63.62c0,.58,0,1.16,0,1.74a.61.61,0,0,0,.59.63q.84,0,1.68,0a.62.62,0,0,0,.66-.71C27.82,23.3,27.81,23,27.81,22.76Zm-5.37,5.36c0-.3,0-.61,0-.91a.52.52,0,0,0-.54-.55c-.61,0-1.23,0-1.84,0a.51.51,0,0,0-.55.51q0,.95,0,1.89a.53.53,0,0,0,.56.53h1.81a.52.52,0,0,0,.56-.57C22.45,28.72,22.44,28.42,22.44,28.12Z"/><path class="cls-7" d="M24.87,28.13c0-.31,0-.61,0-.91a.54.54,0,0,1,.57-.57h1.77a.54.54,0,0,1,.59.59q0,.89,0,1.77a.53.53,0,0,1-.59.58c-.59,0-1.18,0-1.78,0a.52.52,0,0,1-.56-.56C24.87,28.73,24.87,28.43,24.87,28.13Z"/><path class="cls-7" d="M20.63,35H20a.53.53,0,0,1-.53-.53c0-.63,0-1.25,0-1.88a.53.53,0,0,1,.6-.52H22a.57.57,0,0,1,.43.63c0,.57,0,1.14,0,1.71a.54.54,0,0,1-.59.6Z"/><path class="cls-7" d="M22.44,22.8v.84a.56.56,0,0,1-.62.63c-.54,0-1.09,0-1.63,0a.63.63,0,0,1-.68-.7c0-.55,0-1.1,0-1.64s.2-.65.63-.65h1.67c.43,0,.63.21.63.65Z"/><path class="cls-7" d="M27.81,22.76c0,.27,0,.54,0,.8a.62.62,0,0,1-.66.71q-.84,0-1.68,0a.61.61,0,0,1-.59-.63c0-.58,0-1.16,0-1.74a.55.55,0,0,1,.63-.62h1.67c.43,0,.63.21.63.65C27.82,22.2,27.81,22.48,27.81,22.76Z"/><path class="cls-7" d="M22.44,28.12c0,.3,0,.6,0,.9a.52.52,0,0,1-.56.57H20.07a.53.53,0,0,1-.56-.53q0-.94,0-1.89a.51.51,0,0,1,.55-.51c.61,0,1.23,0,1.84,0a.52.52,0,0,1,.54.55C22.45,27.51,22.44,27.82,22.44,28.12Z"/></g></svg>